<svg width="124" height="39" viewBox="0 0 124 39" fill="none" xmlns="http://www.w3.org/2000/svg">
<rect width="124" height="39" fill="#FF0000"/>
<path d="M23.9141 10.2109H28.7969V9.23438H29.7734V7.28125H28.7969V6.30469H23.9141V10.2109ZM21.9609 18.0234V4.35156H29.7734V5.32812H30.75V6.30469H31.7266V10.2109H30.75V12.1641H31.7266V16.0703H30.75V17.0469H29.7734V18.0234H21.9609ZM23.9141 16.0703H28.7969V15.0938H29.7734V13.1406H28.7969V12.1641H23.9141V16.0703ZM35.6328 18.0234V16.0703H40.5156V15.0938H41.4922V12.1641H40.5156V13.1406H39.5391V14.1172H35.6328V13.1406H34.6562V12.1641H33.6797V6.30469H35.6328V11.1875H36.6094V12.1641H38.5625V11.1875H39.5391V10.2109H40.5156V8.25781H41.4922V6.30469H43.4453V16.0703H42.4688V17.0469H41.4922V18.0234H35.6328ZM53.2109 9.23438H52.2344V8.25781H49.3047V9.23438H48.3281V12.1641H49.3047V13.1406H52.2344V12.1641H53.2109V9.23438ZM47.3516 14.1172V18.0234H45.3984V6.30469H47.3516V7.28125H48.3281V6.30469H53.2109V7.28125H54.1875V8.25781H55.1641V13.1406H54.1875V14.1172H53.2109V15.0938H48.3281V14.1172H47.3516ZM60.0469 16.0703H63.9531V15.0938H64.9297V13.1406H63.9531V12.1641H60.0469V13.1406H59.0703V15.0938H60.0469V16.0703ZM59.0703 18.0234V17.0469H58.0938V16.0703H57.1172V12.1641H58.0938V11.1875H59.0703V10.2109H63.9531V11.1875H64.9297V9.23438H63.9531V8.25781H59.0703V6.30469H64.9297V7.28125H65.9062V8.25781H66.8828V18.0234H64.9297V17.0469H63.9531V18.0234H59.0703ZM69.8125 16.0703H68.8359V14.1172H70.7891V15.0938H71.7656V16.0703H75.6719V14.1172H73.7188V13.1406H71.7656V12.1641H69.8125V11.1875H68.8359V9.23438H69.8125V8.25781H70.7891V7.28125H76.6484V8.25781H77.625V9.23438H78.6016V11.1875H76.6484V10.2109H75.6719V9.23438H71.7656V11.1875H74.6953V12.1641H76.6484V13.1406H77.625V14.1172H78.6016V16.0703H77.625V17.0469H76.6484V18.0234H70.7891V17.0469H69.8125V16.0703ZM81.5312 16.0703H80.5547V14.1172H82.5078V15.0938H83.4844V16.0703H87.3906V14.1172H85.4375V13.1406H83.4844V12.1641H81.5312V11.1875H80.5547V9.23438H81.5312V8.25781H82.5078V7.28125H88.3672V8.25781H89.3438V9.23438H90.3203V11.1875H88.3672V10.2109H87.3906V9.23438H83.4844V11.1875H86.4141V12.1641H88.3672V13.1406H89.3438V14.1172H90.3203V16.0703H89.3438V17.0469H88.3672V18.0234H82.5078V17.0469H81.5312V16.0703ZM97.1562 14.1172V16.0703H95.2031V14.1172H97.1562ZM97.1562 6.30469V8.25781H95.2031V6.30469H97.1562ZM52.2344 26.3047H48.3281V27.2812H47.3516V35.0938H48.3281V36.0703H52.2344V35.0938H53.2109V27.2812H52.2344V26.3047ZM47.3516 25.3281V24.3516H53.2109V25.3281H54.1875V26.3047H55.1641V36.0703H54.1875V37.0469H53.2109V38.0234H47.3516V37.0469H46.375V36.0703H45.3984V26.3047H46.375V25.3281H47.3516ZM62.9766 38.0234H61.0234V29.2344H58.0938V27.2812H61.0234V25.3281H62V24.3516H65.9062V26.3047H62.9766V27.2812H65.9062V29.2344H62.9766V38.0234ZM74.6953 38.0234H72.7422V29.2344H69.8125V27.2812H72.7422V25.3281H73.7188V24.3516H77.625V26.3047H74.6953V27.2812H77.625V29.2344H74.6953V38.0234Z" fill="#00FF00"/>
</svg>
