<svg width="124" height="39" viewBox="0 0 124 39" fill="none" xmlns="http://www.w3.org/2000/svg">
<path d="M6.33594 10.2109H11.2188V9.23438H12.1953V7.28125H11.2188V6.30469H6.33594V10.2109ZM4.38281 18.0234V4.35156H12.1953V5.32812H13.1719V6.30469H14.1484V10.2109H13.1719V12.1641H14.1484V16.0703H13.1719V17.0469H12.1953V18.0234H4.38281ZM6.33594 16.0703H11.2188V15.0938H12.1953V13.1406H11.2188V12.1641H6.33594V16.0703ZM18.0547 18.0234V16.0703H22.9375V15.0938H23.9141V12.1641H22.9375V13.1406H21.9609V14.1172H18.0547V13.1406H17.0781V12.1641H16.1016V6.30469H18.0547V11.1875H19.0312V12.1641H20.9844V11.1875H21.9609V10.2109H22.9375V8.25781H23.9141V6.30469H25.8672V16.0703H24.8906V17.0469H23.9141V18.0234H18.0547ZM35.6328 9.23438H34.6562V8.25781H31.7266V9.23438H30.75V12.1641H31.7266V13.1406H34.6562V12.1641H35.6328V9.23438ZM29.7734 14.1172V18.0234H27.8203V6.30469H29.7734V7.28125H30.75V6.30469H35.6328V7.28125H36.6094V8.25781H37.5859V13.1406H36.6094V14.1172H35.6328V15.0938H30.75V14.1172H29.7734ZM42.4688 16.0703H46.375V15.0938H47.3516V13.1406H46.375V12.1641H42.4688V13.1406H41.4922V15.0938H42.4688V16.0703ZM41.4922 18.0234V17.0469H40.5156V16.0703H39.5391V12.1641H40.5156V11.1875H41.4922V10.2109H46.375V11.1875H47.3516V9.23438H46.375V8.25781H41.4922V6.30469H47.3516V7.28125H48.3281V8.25781H49.3047V18.0234H47.3516V17.0469H46.375V18.0234H41.4922ZM52.2344 16.0703H51.2578V14.1172H53.2109V15.0938H54.1875V16.0703H58.0938V14.1172H56.1406V13.1406H54.1875V12.1641H52.2344V11.1875H51.2578V9.23438H52.2344V8.25781H53.2109V7.28125H59.0703V8.25781H60.0469V9.23438H61.0234V11.1875H59.0703V10.2109H58.0938V9.23438H54.1875V11.1875H57.1172V12.1641H59.0703V13.1406H60.0469V14.1172H61.0234V16.0703H60.0469V17.0469H59.0703V18.0234H53.2109V17.0469H52.2344V16.0703ZM63.9531 16.0703H62.9766V14.1172H64.9297V15.0938H65.9062V16.0703H69.8125V14.1172H67.8594V13.1406H65.9062V12.1641H63.9531V11.1875H62.9766V9.23438H63.9531V8.25781H64.9297V7.28125H70.7891V8.25781H71.7656V9.23438H72.7422V11.1875H70.7891V10.2109H69.8125V9.23438H65.9062V11.1875H68.8359V12.1641H70.7891V13.1406H71.7656V14.1172H72.7422V16.0703H71.7656V17.0469H70.7891V18.0234H64.9297V17.0469H63.9531V16.0703ZM79.5781 14.1172V16.0703H77.625V14.1172H79.5781ZM79.5781 6.30469V8.25781H77.625V6.30469H79.5781ZM104.969 6.30469H101.062V7.28125H100.086V15.0938H101.062V16.0703H104.969V15.0938H105.945V7.28125H104.969V6.30469ZM100.086 5.32812V4.35156H105.945V5.32812H106.922V6.30469H107.898V16.0703H106.922V17.0469H105.945V18.0234H100.086V17.0469H99.1094V16.0703H98.1328V6.30469H99.1094V5.32812H100.086ZM111.805 10.2109V18.0234H109.852V7.28125H111.805V8.25781H112.781V7.28125H117.664V8.25781H118.641V9.23438H119.617V18.0234H117.664V10.2109H116.688V9.23438H112.781V10.2109H111.805Z" fill="#FF0000"/>
</svg>
