<svg width="196" height="515" viewBox="0 0 196 515" fill="none" xmlns="http://www.w3.org/2000/svg">
<path d="M58.8906 6.76562V18.4844H64.75V17.3125H65.9219V7.9375H64.75V6.76562H58.8906ZM56.5469 20.8281V4.42188H65.9219V5.59375H67.0938V6.76562H68.2656V18.4844H67.0938V19.6562H65.9219V20.8281H56.5469ZM72.9531 13.7969V20.8281H70.6094V7.9375H72.9531V10.2812H74.125V9.10938H75.2969V7.9375H79.9844V9.10938H81.1562V10.2812H82.3281V12.625H79.9844V11.4531H78.8125V10.2812H76.4688V11.4531H75.2969V12.625H74.125V13.7969H72.9531ZM91.7031 5.59375V7.9375H89.3594V5.59375H91.7031ZM92.875 18.4844H94.0469V20.8281H91.7031V19.6562H90.5312V18.4844H89.3594V12.625H87.0156V10.2812H91.7031V17.3125H92.875V18.4844ZM98.7344 7.9375H101.078V14.9688H102.25V16.1406H103.422V17.3125H105.766V16.1406H106.938V14.9688H108.109V7.9375H110.453V16.1406H109.281V17.3125H108.109V18.4844H106.938V19.6562H105.766V20.8281H103.422V19.6562H102.25V18.4844H101.078V17.3125H99.9062V16.1406H98.7344V7.9375ZM115.141 11.4531V12.625H122.172V11.4531H121V10.2812H116.312V11.4531H115.141ZM124.516 17.3125V18.4844H123.344V19.6562H122.172V20.8281H115.141V19.6562H113.969V18.4844H112.797V10.2812H113.969V9.10938H115.141V7.9375H122.172V9.10938H123.344V10.2812H124.516V13.7969H123.344V14.9688H115.141V17.3125H116.312V18.4844H121V17.3125H124.516ZM147.953 19.6562H149.125V20.8281H146.781V19.6562H145.609V18.4844H144.438V17.3125H143.266V5.59375H144.438V4.42188H145.609V3.25H146.781V2.07812H149.125V3.25H147.953V4.42188H146.781V5.59375H145.609V17.3125H146.781V18.4844H147.953V19.6562ZM157.328 6.76562V18.4844H163.188V17.3125H164.359V7.9375H163.188V6.76562H157.328ZM154.984 20.8281V4.42188H164.359V5.59375H165.531V6.76562H166.703V18.4844H165.531V19.6562H164.359V20.8281H154.984ZM174.906 18.4844H176.078V17.3125H177.25V16.1406H178.422V12.625H177.25V11.4531H176.078V10.2812H174.906V11.4531H173.734V12.625H172.562V16.1406H173.734V17.3125H174.906V18.4844ZM171.391 18.4844V20.8281H169.047V4.42188H171.391V10.2812H172.562V9.10938H173.734V7.9375H177.25V9.10938H178.422V10.2812H179.594V11.4531H180.766V17.3125H179.594V18.4844H178.422V19.6562H177.25V20.8281H173.734V19.6562H172.562V18.4844H171.391ZM188.969 19.6562V20.8281H186.625V19.6562H187.797V18.4844H188.969V17.3125H190.141V5.59375H188.969V4.42188H187.797V3.25H186.625V2.07812H188.969V3.25H190.141V4.42188H191.312V5.59375H192.484V17.3125H191.312V18.4844H190.141V19.6562H188.969Z" fill="#00FF00"/>
<rect x="0.5" y="31.5" width="195" height="483" stroke="#00FF00"/>
<g filter="url(#filter0_dd_44_4971)">
<path d="M19.6875 62.4844H24.375V61.3125H25.5469V60.1406H27.8906V62.4844H26.7188V63.6562H25.5469V64.8281H18.5156V63.6562H17.3438V62.4844H16.1719V50.7656H17.3438V49.5938H18.5156V48.4219H25.5469V49.5938H26.7188V50.7656H27.8906V53.1094H25.5469V51.9375H24.375V50.7656H19.6875V51.9375H18.5156V61.3125H19.6875V62.4844ZM32.5781 50.7656V55.4531H38.4375V54.2812H39.6094V51.9375H38.4375V50.7656H32.5781ZM33.75 57.7969H32.5781V64.8281H30.2344V48.4219H39.6094V49.5938H40.7812V50.7656H41.9531V55.4531H40.7812V56.625H39.6094V57.7969H37.2656V58.9688H38.4375V60.1406H39.6094V61.3125H40.7812V62.4844H41.9531V64.8281H39.6094V63.6562H38.4375V62.4844H37.2656V61.3125H36.0938V60.1406H34.9219V58.9688H33.75V57.7969ZM46.6406 64.8281V62.4844H48.9844V50.7656H46.6406V48.4219H53.6719V50.7656H51.3281V62.4844H53.6719V64.8281H46.6406ZM63.0469 50.7656H58.3594V48.4219H70.0781V50.7656H65.3906V64.8281H63.0469V50.7656Z" fill="#00FF00"/>
<path d="M18.5156 144.797V151.828H16.1719V135.422H18.5156V142.453H25.5469V135.422H27.8906V151.828H25.5469V144.797H18.5156ZM37.2656 136.594V138.938H34.9219V136.594H37.2656ZM38.4375 149.484H39.6094V151.828H37.2656V150.656H36.0938V149.484H34.9219V143.625H32.5781V141.281H37.2656V148.312H38.4375V149.484ZM53.6719 142.453V141.281H52.5V140.109H47.8125V141.281H46.6406V142.453H47.8125V143.625H52.5V142.453H53.6719ZM46.6406 150.656H45.4688V148.312H47.8125V149.484H52.5V148.312H53.6719V144.797H52.5V145.969H46.6406V144.797H45.4688V143.625H44.2969V140.109H45.4688V138.938H46.6406V137.766H53.6719V138.938H54.8438V140.109H56.0156V149.484H54.8438V150.656H53.6719V151.828H46.6406V150.656ZM60.7031 144.797V151.828H58.3594V135.422H60.7031V141.281H61.875V140.109H63.0469V138.938H66.5625V140.109H67.7344V141.281H68.9062V142.453H70.0781V151.828H67.7344V143.625H66.5625V142.453H65.3906V141.281H64.2188V142.453H63.0469V143.625H61.875V144.797H60.7031Z" fill="#00FF00"/>
<path d="M33.3281 322.828H30.9844V306.422H33.3281V308.766H34.5V309.938H35.6719V311.109H38.0156V309.938H39.1875V308.766H40.3594V306.422H42.7031V322.828H40.3594V312.281H39.1875V313.453H38.0156V315.797H35.6719V313.453H34.5V312.281H33.3281V322.828ZM47.3906 313.453V314.625H54.4219V313.453H53.25V312.281H48.5625V313.453H47.3906ZM56.7656 319.312V320.484H55.5938V321.656H54.4219V322.828H47.3906V321.656H46.2188V320.484H45.0469V312.281H46.2188V311.109H47.3906V309.938H54.4219V311.109H55.5938V312.281H56.7656V315.797H55.5938V316.969H47.3906V319.312H48.5625V320.484H53.25V319.312H56.7656ZM68.4844 312.281V306.422H70.8281V322.828H68.4844V320.484H67.3125V321.656H66.1406V322.828H62.625V321.656H61.4531V320.484H60.2812V319.312H59.1094V313.453H60.2812V312.281H61.4531V311.109H62.625V309.938H66.1406V311.109H67.3125V312.281H68.4844ZM62.625 319.312H63.7969V320.484H64.9688V319.312H66.1406V318.141H67.3125V314.625H66.1406V313.453H64.9688V312.281H63.7969V313.453H62.625V314.625H61.4531V318.141H62.625V319.312Z" fill="#00FF00"/>
<path d="M30.9844 492.828V476.422H33.3281V490.484H42.7031V492.828H30.9844ZM48.5625 490.484H53.25V489.312H54.4219V483.453H53.25V482.281H48.5625V483.453H47.3906V489.312H48.5625V490.484ZM47.3906 492.828V491.656H46.2188V490.484H45.0469V482.281H46.2188V481.109H47.3906V479.938H54.4219V481.109H55.5938V482.281H56.7656V490.484H55.5938V491.656H54.4219V492.828H47.3906ZM59.1094 479.938H61.4531V489.312H62.625V490.484H63.7969V484.625H66.1406V490.484H67.3125V489.312H68.4844V479.938H70.8281V490.484H69.6562V491.656H68.4844V492.828H66.1406V491.656H63.7969V492.828H61.4531V491.656H60.2812V490.484H59.1094V479.938Z" fill="#00FF00"/>
</g>
<g filter="url(#filter1_dd_44_4971)">
<path d="M135.719 55.4531V57.7969H126.344V55.4531H135.719ZM141.578 62.4844H150.953V64.8281H139.234V57.7969H140.406V56.625H141.578V55.4531H147.438V54.2812H148.609V51.9375H147.438V50.7656H142.75V51.9375H141.578V53.1094H139.234V50.7656H140.406V49.5938H141.578V48.4219H148.609V49.5938H149.781V50.7656H150.953V55.4531H149.781V56.625H148.609V57.7969H142.75V58.9688H141.578V62.4844ZM160.328 49.5938V48.4219H162.672V57.7969H165.016V60.1406H162.672V64.8281H160.328V60.1406H153.297V55.4531H154.469V54.2812H155.641V53.1094H156.812V51.9375H157.984V50.7656H159.156V49.5938H160.328ZM160.328 57.7969V53.1094H159.156V54.2812H157.984V55.4531H156.812V56.625H155.641V57.7969H160.328Z" fill="#00FF00"/>
<path d="M135.719 91.1198V93.4635H126.344V91.1198H135.719ZM141.578 98.151H150.953V100.495H139.234V93.4635H140.406V92.2917H141.578V91.1198H147.438V89.9479H148.609V87.6042H147.438V86.4323H142.75V87.6042H141.578V88.776H139.234V86.4323H140.406V85.2604H141.578V84.0885H148.609V85.2604H149.781V86.4323H150.953V91.1198H149.781V92.2917H148.609V93.4635H142.75V94.6354H141.578V98.151ZM155.641 98.151H165.016V100.495H153.297V93.4635H154.469V92.2917H155.641V91.1198H161.5V89.9479H162.672V87.6042H161.5V86.4323H156.812V87.6042H155.641V88.776H153.297V86.4323H154.469V85.2604H155.641V84.0885H162.672V85.2604H163.844V86.4323H165.016V91.1198H163.844V92.2917H162.672V93.4635H156.812V94.6354H155.641V98.151Z" fill="#00FF00"/>
<path d="M135.719 126.786V129.13H126.344V126.786H135.719ZM141.578 133.818H150.953V136.161H139.234V129.13H140.406V127.958H141.578V126.786H147.438V125.615H148.609V123.271H147.438V122.099H142.75V123.271H141.578V124.443H139.234V122.099H140.406V120.927H141.578V119.755H148.609V120.927H149.781V122.099H150.953V126.786H149.781V127.958H148.609V129.13H142.75V130.302H141.578V133.818ZM156.812 129.13V127.958H157.984V126.786H159.156V125.615H160.328V124.443H162.672V123.271H161.5V122.099H156.812V123.271H155.641V129.13H156.812ZM155.641 131.474V132.646H156.812V133.818H161.5V132.646H162.672V126.786H161.5V127.958H160.328V129.13H159.156V130.302H157.984V131.474H155.641ZM155.641 120.927V119.755H162.672V120.927H163.844V122.099H165.016V133.818H163.844V134.99H162.672V136.161H155.641V134.99H154.469V133.818H153.297V122.099H154.469V120.927H155.641Z" fill="#00FF00"/>
<path d="M135.719 162.453V164.797H126.344V162.453H135.719ZM146.266 169.484H148.609V171.828H141.578V169.484H143.922V160.109H141.578V157.766H142.75V156.594H143.922V155.422H146.266V169.484ZM156.812 169.484H161.5V168.312H162.672V165.969H161.5V164.797H156.812V165.969H155.641V168.312H156.812V169.484ZM162.672 170.656V171.828H155.641V170.656H154.469V169.484H153.297V164.797H154.469V162.453H153.297V157.766H154.469V156.594H155.641V155.422H162.672V156.594H163.844V157.766H165.016V162.453H163.844V164.797H165.016V169.484H163.844V170.656H162.672ZM161.5 157.766H156.812V158.938H155.641V161.281H156.812V162.453H161.5V161.281H162.672V158.938H161.5V157.766Z" fill="#00FF00"/>
<path d="M135.719 198.12V200.464H126.344V198.12H135.719ZM146.266 205.151H148.609V207.495H141.578V205.151H143.922V195.776H141.578V193.432H142.75V192.26H143.922V191.089H146.266V205.151ZM162.672 206.323V207.495H155.641V206.323H154.469V205.151H153.297V193.432H154.469V192.26H155.641V191.089H162.672V192.26H163.844V193.432H165.016V195.776H162.672V194.604H161.5V193.432H156.812V194.604H155.641V198.12H162.672V199.292H163.844V200.464H165.016V205.151H163.844V206.323H162.672ZM156.812 205.151H161.5V203.979H162.672V201.635H161.5V200.464H155.641V203.979H156.812V205.151Z" fill="#00FF00"/>
<path d="M135.719 233.786V236.13H126.344V233.786H135.719ZM146.266 240.818H148.609V243.161H141.578V240.818H143.922V231.443H141.578V229.099H142.75V227.927H143.922V226.755H146.266V240.818ZM160.328 227.927V226.755H162.672V236.13H165.016V238.474H162.672V243.161H160.328V238.474H153.297V233.786H154.469V232.615H155.641V231.443H156.812V230.271H157.984V229.099H159.156V227.927H160.328ZM160.328 236.13V231.443H159.156V232.615H157.984V233.786H156.812V234.958H155.641V236.13H160.328Z" fill="#00FF00"/>
<path d="M135.719 269.453V271.797H126.344V269.453H135.719ZM146.266 276.484H148.609V278.828H141.578V276.484H143.922V267.109H141.578V264.766H142.75V263.594H143.922V262.422H146.266V276.484ZM155.641 276.484H165.016V278.828H153.297V271.797H154.469V270.625H155.641V269.453H161.5V268.281H162.672V265.938H161.5V264.766H156.812V265.938H155.641V267.109H153.297V264.766H154.469V263.594H155.641V262.422H162.672V263.594H163.844V264.766H165.016V269.453H163.844V270.625H162.672V271.797H156.812V272.969H155.641V276.484Z" fill="#00FF00"/>
<path d="M135.719 305.12V307.464H126.344V305.12H135.719ZM146.266 312.151H148.609V314.495H141.578V312.151H143.922V302.776H141.578V300.432H142.75V299.26H143.922V298.089H146.266V312.151ZM156.812 307.464V306.292H157.984V305.12H159.156V303.948H160.328V302.776H162.672V301.604H161.5V300.432H156.812V301.604H155.641V307.464H156.812ZM155.641 309.807V310.979H156.812V312.151H161.5V310.979H162.672V305.12H161.5V306.292H160.328V307.464H159.156V308.635H157.984V309.807H155.641ZM155.641 299.26V298.089H162.672V299.26H163.844V300.432H165.016V312.151H163.844V313.323H162.672V314.495H155.641V313.323H154.469V312.151H153.297V300.432H154.469V299.26H155.641Z" fill="#00FF00"/>
<path d="M135.719 340.786V343.13H126.344V340.786H135.719ZM142.75 347.818H147.438V346.646H148.609V344.302H147.438V343.13H142.75V344.302H141.578V346.646H142.75V347.818ZM148.609 348.99V350.161H141.578V348.99H140.406V347.818H139.234V343.13H140.406V340.786H139.234V336.099H140.406V334.927H141.578V333.755H148.609V334.927H149.781V336.099H150.953V340.786H149.781V343.13H150.953V347.818H149.781V348.99H148.609ZM147.438 336.099H142.75V337.271H141.578V339.615H142.75V340.786H147.438V339.615H148.609V337.271H147.438V336.099Z" fill="#00FF00"/>
<path d="M135.719 376.453V378.797H126.344V376.453H135.719ZM148.609 384.656V385.828H141.578V384.656H140.406V383.484H139.234V371.766H140.406V370.594H141.578V369.422H148.609V370.594H149.781V371.766H150.953V374.109H148.609V372.938H147.438V371.766H142.75V372.938H141.578V376.453H148.609V377.625H149.781V378.797H150.953V383.484H149.781V384.656H148.609ZM142.75 383.484H147.438V382.312H148.609V379.969H147.438V378.797H141.578V382.312H142.75V383.484Z" fill="#00FF00"/>
<path d="M135.719 412.12V414.464H126.344V412.12H135.719ZM146.266 406.26V405.089H148.609V414.464H150.953V416.807H148.609V421.495H146.266V416.807H139.234V412.12H140.406V410.948H141.578V409.776H142.75V408.604H143.922V407.432H145.094V406.26H146.266ZM146.266 414.464V409.776H145.094V410.948H143.922V412.12H142.75V413.292H141.578V414.464H146.266Z" fill="#00FF00"/>
<path d="M135.719 447.786V450.13H126.344V447.786H135.719ZM141.578 454.818H150.953V457.161H139.234V450.13H140.406V448.958H141.578V447.786H147.438V446.615H148.609V444.271H147.438V443.099H142.75V444.271H141.578V445.443H139.234V443.099H140.406V441.927H141.578V440.755H148.609V441.927H149.781V443.099H150.953V447.786H149.781V448.958H148.609V450.13H142.75V451.302H141.578V454.818Z" fill="#00FF00"/>
<path d="M135.719 483.453V485.797H126.344V483.453H135.719ZM142.75 485.797V484.625H143.922V483.453H145.094V482.281H146.266V481.109H148.609V479.937H147.438V478.766H142.75V479.937H141.578V485.797H142.75ZM141.578 488.141V489.312H142.75V490.484H147.438V489.312H148.609V483.453H147.438V484.625H146.266V485.797H145.094V486.969H143.922V488.141H141.578ZM141.578 477.594V476.422H148.609V477.594H149.781V478.766H150.953V490.484H149.781V491.656H148.609V492.828H141.578V491.656H140.406V490.484H139.234V478.766H140.406V477.594H141.578Z" fill="#00FF00"/>
</g>
<defs>
<filter id="filter0_dd_44_4971" x="14" y="44" width="59" height="451" filterUnits="userSpaceOnUse" color-interpolation-filters="sRGB">
<feFlood flood-opacity="0" result="BackgroundImageFix"/>
<feColorMatrix in="SourceAlpha" type="matrix" values="0 0 0 0 0 0 0 0 0 0 0 0 0 0 0 0 0 0 127 0" result="hardAlpha"/>
<feOffset dx="1"/>
<feComposite in2="hardAlpha" operator="out"/>
<feColorMatrix type="matrix" values="0 0 0 0 0 0 0 0 0 1 0 0 0 0 1 0 0 0 1 0"/>
<feBlend mode="normal" in2="BackgroundImageFix" result="effect1_dropShadow_44_4971"/>
<feColorMatrix in="SourceAlpha" type="matrix" values="0 0 0 0 0 0 0 0 0 0 0 0 0 0 0 0 0 0 127 0" result="hardAlpha"/>
<feOffset dx="-1"/>
<feComposite in2="hardAlpha" operator="out"/>
<feColorMatrix type="matrix" values="0 0 0 0 1 0 0 0 0 0 0 0 0 0 1 0 0 0 1 0"/>
<feBlend mode="normal" in2="effect1_dropShadow_44_4971" result="effect2_dropShadow_44_4971"/>
<feBlend mode="normal" in="SourceGraphic" in2="effect2_dropShadow_44_4971" result="shape"/>
</filter>
<filter id="filter1_dd_44_4971" x="123" y="44" width="59" height="451" filterUnits="userSpaceOnUse" color-interpolation-filters="sRGB">
<feFlood flood-opacity="0" result="BackgroundImageFix"/>
<feColorMatrix in="SourceAlpha" type="matrix" values="0 0 0 0 0 0 0 0 0 0 0 0 0 0 0 0 0 0 127 0" result="hardAlpha"/>
<feOffset dx="1"/>
<feComposite in2="hardAlpha" operator="out"/>
<feColorMatrix type="matrix" values="0 0 0 0 0 0 0 0 0 1 0 0 0 0 1 0 0 0 1 0"/>
<feBlend mode="normal" in2="BackgroundImageFix" result="effect1_dropShadow_44_4971"/>
<feColorMatrix in="SourceAlpha" type="matrix" values="0 0 0 0 0 0 0 0 0 0 0 0 0 0 0 0 0 0 127 0" result="hardAlpha"/>
<feOffset dx="-1"/>
<feComposite in2="hardAlpha" operator="out"/>
<feColorMatrix type="matrix" values="0 0 0 0 1 0 0 0 0 0 0 0 0 0 1 0 0 0 1 0"/>
<feBlend mode="normal" in2="effect1_dropShadow_44_4971" result="effect2_dropShadow_44_4971"/>
<feBlend mode="normal" in="SourceGraphic" in2="effect2_dropShadow_44_4971" result="shape"/>
</filter>
</defs>
</svg>
