<svg width="2000" height="1000" viewBox="0 0 2000 1000" fill="none" xmlns="http://www.w3.org/2000/svg">
<g clip-path="url(#clip0_44_5919)">
<g clip-path="url(#clip1_44_5919)" filter="url(#filter0_dd_44_5919)">
<rect width="2000" height="1000" fill="url(#paint0_radial_44_5919)" style="mix-blend-mode:overlay"/>
<g opacity="0.9" filter="url(#filter1_dd_44_5919)">
<path d="M1888 0H112C50.1441 0 0 26.9592 0 60.2151V939.785C0 973.041 50.1441 1000 112 1000H1888C1949.86 1000 2000 973.041 2000 939.785V60.2151C2000 26.9592 1949.86 0 1888 0Z" fill="url(#paint1_radial_44_5919)" shape-rendering="crispEdges"/>
</g>
<path d="M0 0H2000V1.84162H0V0Z" fill="black"/>
<path d="M0 3.68324H2000V5.52486H0V3.68324Z" fill="black"/>
<path d="M0 7.36648H2000V9.2081H0V7.36648Z" fill="black"/>
<path d="M0 11.0497H2000V12.8913H0V11.0497Z" fill="black"/>
<path d="M0 14.733H2000V16.5746H0V14.733Z" fill="black"/>
<path d="M0 18.4162H2000V20.2578H0V18.4162Z" fill="black"/>
<path d="M0 22.0994H2000V23.9411H0V22.0994Z" fill="black"/>
<path d="M0 25.7827H2000V27.6243H0V25.7827Z" fill="black"/>
<path d="M0 29.4659H2000V31.3076H0V29.4659Z" fill="black"/>
<path d="M0 33.1492H2000V34.9908H0V33.1492Z" fill="black"/>
<path d="M0 36.8324H2000V38.674H0V36.8324Z" fill="black"/>
<path d="M0 40.5157H2000V42.3573H0V40.5157Z" fill="black"/>
<path d="M0 44.1989H2000V46.0405H0V44.1989Z" fill="black"/>
<path d="M0 47.8821H2000V49.7238H0V47.8821Z" fill="black"/>
<path d="M0 51.5654H2000V53.407H0V51.5654Z" fill="black"/>
<path d="M0 55.2486H2000V57.0902H0V55.2486Z" fill="black"/>
<path d="M0 58.9319H2000V60.7735H0V58.9319Z" fill="black"/>
<path d="M0 62.6151H2000V64.4567H0V62.6151Z" fill="black"/>
<path d="M0 66.2983H2000V68.14H0V66.2983Z" fill="black"/>
<path d="M0 69.9816H2000V71.8232H0V69.9816Z" fill="black"/>
<path d="M0 73.6648H2000V75.5064H0V73.6648Z" fill="black"/>
<path d="M0 77.3481H2000V79.1897H0V77.3481Z" fill="black"/>
<path d="M0 81.0313H2000V82.8729H0V81.0313Z" fill="black"/>
<path d="M0 84.7146H2000V86.5562H0V84.7146Z" fill="black"/>
<path d="M0 88.3978H2000V90.2394H0V88.3978Z" fill="black"/>
<path d="M0 92.081H2000V93.9227H0V92.081Z" fill="black"/>
<path d="M0 95.7643H2000V97.6059H0V95.7643Z" fill="black"/>
<path d="M0 99.4475H2000V101.289H0V99.4475Z" fill="black"/>
<path d="M0 103.131H2000V104.972H0V103.131Z" fill="black"/>
<path d="M0 106.814H2000V108.656H0V106.814Z" fill="black"/>
<path d="M0 110.497H2000V112.339H0V110.497Z" fill="black"/>
<path d="M0 114.18H2000V116.022H0V114.18Z" fill="black"/>
<path d="M0 117.864H2000V119.705H0V117.864Z" fill="black"/>
<path d="M0 121.547H2000V123.389H0V121.547Z" fill="black"/>
<path d="M0 125.23H2000V127.072H0V125.23Z" fill="black"/>
<path d="M0 128.913H2000V130.755H0V128.913Z" fill="black"/>
<path d="M0 132.597H2000V134.438H0V132.597Z" fill="black"/>
<path d="M0 136.28H2000V138.122H0V136.28Z" fill="black"/>
<path d="M0 139.963H2000V141.805H0V139.963Z" fill="black"/>
<path d="M0 143.646H2000V145.488H0V143.646Z" fill="black"/>
<path d="M0 147.33H2000V149.171H0V147.33Z" fill="black"/>
<path d="M0 151.013H2000V152.855H0V151.013Z" fill="black"/>
<path d="M0 154.696H2000V156.538H0V154.696Z" fill="black"/>
<path d="M0 158.379H2000V160.221H0V158.379Z" fill="black"/>
<path d="M0 162.063H2000V163.904H0V162.063Z" fill="black"/>
<path d="M0 165.746H2000V167.587H0V165.746Z" fill="black"/>
<path d="M0 169.429H2000V171.271H0V169.429Z" fill="black"/>
<path d="M0 173.112H2000V174.954H0V173.112Z" fill="black"/>
<path d="M0 176.796H2000V178.637H0V176.796Z" fill="black"/>
<path d="M0 180.479H2000V182.32H0V180.479Z" fill="black"/>
<path d="M0 184.162H2000V186.004H0V184.162Z" fill="black"/>
<path d="M0 187.845H2000V189.687H0V187.845Z" fill="black"/>
<path d="M0 191.529H2000V193.37H0V191.529Z" fill="black"/>
<path d="M0 195.212H2000V197.053H0V195.212Z" fill="black"/>
<path d="M0 198.895H2000V200.737H0V198.895Z" fill="black"/>
<path d="M0 202.578H2000V204.42H0V202.578Z" fill="black"/>
<path d="M0 206.262H2000V208.103H0V206.262Z" fill="black"/>
<path d="M0 209.945H2000V211.786H0V209.945Z" fill="black"/>
<path d="M0 213.628H2000V215.47H0V213.628Z" fill="black"/>
<path d="M0 217.311H2000V219.153H0V217.311Z" fill="black"/>
<path d="M0 220.994H2000V222.836H0V220.994Z" fill="black"/>
<path d="M0 224.678H2000V226.519H0V224.678Z" fill="black"/>
<path d="M0 228.361H2000V230.203H0V228.361Z" fill="black"/>
<path d="M0 232.044H2000V233.886H0V232.044Z" fill="black"/>
<path d="M0 235.727H2000V237.569H0V235.727Z" fill="black"/>
<path d="M0 239.411H2000V241.252H0V239.411Z" fill="black"/>
<path d="M0 243.094H2000V244.936H0V243.094Z" fill="black"/>
<path d="M0 246.777H2000V248.619H0V246.777Z" fill="black"/>
<path d="M0 250.46H2000V252.302H0V250.46Z" fill="black"/>
<path d="M0 254.144H2000V255.985H0V254.144Z" fill="black"/>
<path d="M0 257.827H2000V259.669H0V257.827Z" fill="black"/>
<path d="M0 261.51H2000V263.352H0V261.51Z" fill="black"/>
<path d="M0 265.193H2000V267.035H0V265.193Z" fill="black"/>
<path d="M0 268.877H2000V270.718H0V268.877Z" fill="black"/>
<path d="M0 272.56H2000V274.401H0V272.56Z" fill="black"/>
<path d="M0 276.243H2000V278.085H0V276.243Z" fill="black"/>
<path d="M0 279.926H2000V281.768H0V279.926Z" fill="black"/>
<path d="M0 283.61H2000V285.451H0V283.61Z" fill="black"/>
<path d="M0 287.293H2000V289.134H0V287.293Z" fill="black"/>
<path d="M0 290.976H2000V292.818H0V290.976Z" fill="black"/>
<path d="M0 294.659H2000V296.501H0V294.659Z" fill="black"/>
<path d="M0 298.343H2000V300.184H0V298.343Z" fill="black"/>
<path d="M0 302.026H2000V303.867H0V302.026Z" fill="black"/>
<path d="M0 305.709H2000V307.551H0V305.709Z" fill="black"/>
<path d="M0 309.392H2000V311.234H0V309.392Z" fill="black"/>
<path d="M0 313.076H2000V314.917H0V313.076Z" fill="black"/>
<path d="M0 316.759H2000V318.6H0V316.759Z" fill="black"/>
<path d="M0 320.442H2000V322.284H0V320.442Z" fill="black"/>
<path d="M0 324.125H2000V325.967H0V324.125Z" fill="black"/>
<path d="M0 327.808H2000V329.65H0V327.808Z" fill="black"/>
<path d="M0 331.492H2000V333.333H0V331.492Z" fill="black"/>
<path d="M0 335.175H2000V337.017H0V335.175Z" fill="black"/>
<path d="M0 338.858H2000V340.7H0V338.858Z" fill="black"/>
<path d="M0 342.541H2000V344.383H0V342.541Z" fill="black"/>
<path d="M0 346.225H2000V348.066H0V346.225Z" fill="black"/>
<path d="M0 349.908H2000V351.75H0V349.908Z" fill="black"/>
<path d="M0 353.591H2000V355.433H0V353.591Z" fill="black"/>
<path d="M0 357.274H2000V359.116H0V357.274Z" fill="black"/>
<path d="M0 360.958H2000V362.799H0V360.958Z" fill="black"/>
<path d="M0 364.641H2000V366.483H0V364.641Z" fill="black"/>
<path d="M0 368.324H2000V370.166H0V368.324Z" fill="black"/>
<path d="M0 372.007H2000V373.849H0V372.007Z" fill="black"/>
<path d="M0 375.691H2000V377.532H0V375.691Z" fill="black"/>
<path d="M0 379.374H2000V381.215H0V379.374Z" fill="black"/>
<path d="M0 383.057H2000V384.899H0V383.057Z" fill="black"/>
<path d="M0 386.74H2000V388.582H0V386.74Z" fill="black"/>
<path d="M0 390.424H2000V392.265H0V390.424Z" fill="black"/>
<path d="M0 394.107H2000V395.948H0V394.107Z" fill="black"/>
<path d="M0 397.79H2000V399.632H0V397.79Z" fill="black"/>
<path d="M0 401.473H2000V403.315H0V401.473Z" fill="black"/>
<path d="M0 405.157H2000V406.998H0V405.157Z" fill="black"/>
<path d="M0 408.84H2000V410.681H0V408.84Z" fill="black"/>
<path d="M0 412.523H2000V414.365H0V412.523Z" fill="black"/>
<path d="M0 416.206H2000V418.048H0V416.206Z" fill="black"/>
<path d="M0 419.89H2000V421.731H0V419.89Z" fill="black"/>
<path d="M0 423.573H2000V425.414H0V423.573Z" fill="black"/>
<path d="M0 427.256H2000V429.098H0V427.256Z" fill="black"/>
<path d="M0 430.939H2000V432.781H0V430.939Z" fill="black"/>
<path d="M0 434.622H2000V436.464H0V434.622Z" fill="black"/>
<path d="M0 438.306H2000V440.147H0V438.306Z" fill="black"/>
<path d="M0 441.989H2000V443.831H0V441.989Z" fill="black"/>
<path d="M0 445.672H2000V447.514H0V445.672Z" fill="black"/>
<path d="M0 449.355H2000V451.197H0V449.355Z" fill="black"/>
<path d="M0 453.039H2000V454.88H0V453.039Z" fill="black"/>
<path d="M0 456.722H2000V458.564H0V456.722Z" fill="black"/>
<path d="M0 460.405H2000V462.247H0V460.405Z" fill="black"/>
<path d="M0 464.088H2000V465.93H0V464.088Z" fill="black"/>
<path d="M0 467.772H2000V469.613H0V467.772Z" fill="black"/>
<path d="M0 471.455H2000V473.297H0V471.455Z" fill="black"/>
<path d="M0 475.138H2000V476.98H0V475.138Z" fill="black"/>
<path d="M0 478.821H2000V480.663H0V478.821Z" fill="black"/>
<path d="M0 482.505H2000V484.346H0V482.505Z" fill="black"/>
<path d="M0 486.188H2000V488.029H0V486.188Z" fill="black"/>
<path d="M0 489.871H2000V491.713H0V489.871Z" fill="black"/>
<path d="M0 493.554H2000V495.396H0V493.554Z" fill="black"/>
<path d="M0 497.238H2000V499.079H0V497.238Z" fill="black"/>
<path d="M0 500.921H2000V502.762H0V500.921Z" fill="black"/>
<path d="M0 504.604H2000V506.446H0V504.604Z" fill="black"/>
<path d="M0 508.287H2000V510.129H0V508.287Z" fill="black"/>
<path d="M0 511.971H2000V513.812H0V511.971Z" fill="black"/>
<path d="M0 515.654H2000V517.495H0V515.654Z" fill="black"/>
<path d="M0 519.337H2000V521.179H0V519.337Z" fill="black"/>
<path d="M0 523.02H2000V524.862H0V523.02Z" fill="black"/>
<path d="M0 526.704H2000V528.545H0V526.704Z" fill="black"/>
<path d="M0 530.387H2000V532.228H0V530.387Z" fill="black"/>
<path d="M0 534.07H2000V535.912H0V534.07Z" fill="black"/>
<path d="M0 537.753H2000V539.595H0V537.753Z" fill="black"/>
<path d="M0 541.436H2000V543.278H0V541.436Z" fill="black"/>
<path d="M0 545.12H2000V546.961H0V545.12Z" fill="black"/>
<path d="M0 548.803H2000V550.645H0V548.803Z" fill="black"/>
<path d="M0 552.486H2000V554.328H0V552.486Z" fill="black"/>
<path d="M0 556.169H2000V558.011H0V556.169Z" fill="black"/>
<path d="M0 559.853H2000V561.694H0V559.853Z" fill="black"/>
<path d="M0 563.536H2000V565.378H0V563.536Z" fill="black"/>
<path d="M0 567.219H2000V569.061H0V567.219Z" fill="black"/>
<path d="M0 570.902H2000V572.744H0V570.902Z" fill="black"/>
<path d="M0 574.586H2000V576.427H0V574.586Z" fill="black"/>
<path d="M0 578.269H2000V580.111H0V578.269Z" fill="black"/>
<path d="M0 581.952H2000V583.794H0V581.952Z" fill="black"/>
<path d="M0 585.635H2000V587.477H0V585.635Z" fill="black"/>
<path d="M0 589.319H2000V591.16H0V589.319Z" fill="black"/>
<path d="M0 593.002H2000V594.843H0V593.002Z" fill="black"/>
<path d="M0 596.685H2000V598.527H0V596.685Z" fill="black"/>
<path d="M0 600.368H2000V602.21H0V600.368Z" fill="black"/>
<path d="M0 604.052H2000V605.893H0V604.052Z" fill="black"/>
<path d="M0 607.735H2000V609.576H0V607.735Z" fill="black"/>
<path d="M0 611.418H2000V613.26H0V611.418Z" fill="black"/>
<path d="M0 615.101H2000V616.943H0V615.101Z" fill="black"/>
<path d="M0 618.785H2000V620.626H0V618.785Z" fill="black"/>
<path d="M0 622.468H2000V624.309H0V622.468Z" fill="black"/>
<path d="M0 626.151H2000V627.993H0V626.151Z" fill="black"/>
<path d="M0 629.834H2000V631.676H0V629.834Z" fill="black"/>
<path d="M0 633.518H2000V635.359H0V633.518Z" fill="black"/>
<path d="M0 637.201H2000V639.042H0V637.201Z" fill="black"/>
<path d="M0 640.884H2000V642.726H0V640.884Z" fill="black"/>
<path d="M0 644.567H2000V646.409H0V644.567Z" fill="black"/>
<path d="M0 648.25H2000V650.092H0V648.25Z" fill="black"/>
<path d="M0 651.934H2000V653.775H0V651.934Z" fill="black"/>
<path d="M0 655.617H2000V657.459H0V655.617Z" fill="black"/>
<path d="M0 659.3H2000V661.142H0V659.3Z" fill="black"/>
<path d="M0 662.983H2000V664.825H0V662.983Z" fill="black"/>
<path d="M0 666.667H2000V668.508H0V666.667Z" fill="black"/>
<path d="M0 670.35H2000V672.192H0V670.35Z" fill="black"/>
<path d="M0 674.033H2000V675.875H0V674.033Z" fill="black"/>
<path d="M0 677.716H2000V679.558H0V677.716Z" fill="black"/>
<path d="M0 681.4H2000V683.241H0V681.4Z" fill="black"/>
<path d="M0 685.083H2000V686.925H0V685.083Z" fill="black"/>
<path d="M0 688.766H2000V690.608H0V688.766Z" fill="black"/>
<path d="M0 692.449H2000V694.291H0V692.449Z" fill="black"/>
<path d="M0 696.133H2000V697.974H0V696.133Z" fill="black"/>
<path d="M0 699.816H2000V701.657H0V699.816Z" fill="black"/>
<path d="M0 703.499H2000V705.341H0V703.499Z" fill="black"/>
<path d="M0 707.182H2000V709.024H0V707.182Z" fill="black"/>
<path d="M0 710.866H2000V712.707H0V710.866Z" fill="black"/>
<path d="M0 714.549H2000V716.39H0V714.549Z" fill="black"/>
<path d="M0 718.232H2000V720.074H0V718.232Z" fill="black"/>
<path d="M0 721.915H2000V723.757H0V721.915Z" fill="black"/>
<path d="M0 725.599H2000V727.44H0V725.599Z" fill="black"/>
<path d="M0 729.282H2000V731.123H0V729.282Z" fill="black"/>
<path d="M0 732.965H2000V734.807H0V732.965Z" fill="black"/>
<path d="M0 736.648H2000V738.49H0V736.648Z" fill="black"/>
<path d="M0 740.332H2000V742.173H0V740.332Z" fill="black"/>
<path d="M0 744.015H2000V745.856H0V744.015Z" fill="black"/>
<path d="M0 747.698H2000V749.54H0V747.698Z" fill="black"/>
<path d="M0 751.381H2000V753.223H0V751.381Z" fill="black"/>
<path d="M0 755.064H2000V756.906H0V755.064Z" fill="black"/>
<path d="M0 758.748H2000V760.589H0V758.748Z" fill="black"/>
<path d="M0 762.431H2000V764.273H0V762.431Z" fill="black"/>
<path d="M0 766.114H2000V767.956H0V766.114Z" fill="black"/>
<path d="M0 769.797H2000V771.639H0V769.797Z" fill="black"/>
<path d="M0 773.481H2000V775.322H0V773.481Z" fill="black"/>
<path d="M0 777.164H2000V779.006H0V777.164Z" fill="black"/>
<path d="M0 780.847H2000V782.689H0V780.847Z" fill="black"/>
<path d="M0 784.53H2000V786.372H0V784.53Z" fill="black"/>
<path d="M0 788.214H2000V790.055H0V788.214Z" fill="black"/>
<path d="M0 791.897H2000V793.739H0V791.897Z" fill="black"/>
<path d="M0 795.58H2000V797.422H0V795.58Z" fill="black"/>
<path d="M0 799.263H2000V801.105H0V799.263Z" fill="black"/>
<path d="M0 802.947H2000V804.788H0V802.947Z" fill="black"/>
<path d="M0 806.63H2000V808.471H0V806.63Z" fill="black"/>
<path d="M0 810.313H2000V812.155H0V810.313Z" fill="black"/>
<path d="M0 813.996H2000V815.838H0V813.996Z" fill="black"/>
<path d="M0 817.68H2000V819.521H0V817.68Z" fill="black"/>
<path d="M0 821.363H2000V823.204H0V821.363Z" fill="black"/>
<path d="M0 825.046H2000V826.888H0V825.046Z" fill="black"/>
<path d="M0 828.729H2000V830.571H0V828.729Z" fill="black"/>
<path d="M0 832.413H2000V834.254H0V832.413Z" fill="black"/>
<path d="M0 836.096H2000V837.937H0V836.096Z" fill="black"/>
<path d="M0 839.779H2000V841.621H0V839.779Z" fill="black"/>
<path d="M0 843.462H2000V845.304H0V843.462Z" fill="black"/>
<path d="M0 847.146H2000V848.987H0V847.146Z" fill="black"/>
<path d="M0 850.829H2000V852.67H0V850.829Z" fill="black"/>
<path d="M0 854.512H2000V856.354H0V854.512Z" fill="black"/>
<path d="M0 858.195H2000V860.037H0V858.195Z" fill="black"/>
<path d="M0 861.878H2000V863.72H0V861.878Z" fill="black"/>
<path d="M0 865.562H2000V867.403H0V865.562Z" fill="black"/>
<path d="M0 869.245H2000V871.087H0V869.245Z" fill="black"/>
<path d="M0 872.928H2000V874.77H0V872.928Z" fill="black"/>
<path d="M0 876.611H2000V878.453H0V876.611Z" fill="black"/>
<path d="M0 880.295H2000V882.136H0V880.295Z" fill="black"/>
<path d="M0 883.978H2000V885.82H0V883.978Z" fill="black"/>
<path d="M0 887.661H2000V889.503H0V887.661Z" fill="black"/>
<path d="M0 891.344H2000V893.186H0V891.344Z" fill="black"/>
<path d="M0 895.028H2000V896.869H0V895.028Z" fill="black"/>
<path d="M0 898.711H2000V900.553H0V898.711Z" fill="black"/>
<path d="M0 902.394H2000V904.236H0V902.394Z" fill="black"/>
<path d="M0 906.077H2000V907.919H0V906.077Z" fill="black"/>
<path d="M0 909.761H2000V911.602H0V909.761Z" fill="black"/>
<path d="M0 913.444H2000V915.285H0V913.444Z" fill="black"/>
<path d="M0 917.127H2000V918.969H0V917.127Z" fill="black"/>
<path d="M0 920.81H2000V922.652H0V920.81Z" fill="black"/>
<path d="M0 924.494H2000V926.335H0V924.494Z" fill="black"/>
<path d="M0 928.177H2000V930.018H0V928.177Z" fill="black"/>
<path d="M0 931.86H2000V933.702H0V931.86Z" fill="black"/>
<path d="M0 935.543H2000V937.385H0V935.543Z" fill="black"/>
<path d="M0 939.227H2000V941.068H0V939.227Z" fill="black"/>
<path d="M0 942.91H2000V944.751H0V942.91Z" fill="black"/>
<path d="M0 946.593H2000V948.435H0V946.593Z" fill="black"/>
<path d="M0 950.276H2000V952.118H0V950.276Z" fill="black"/>
<path d="M0 953.96H2000V955.801H0V953.96Z" fill="black"/>
<path d="M0 957.643H2000V959.484H0V957.643Z" fill="black"/>
<path d="M0 961.326H2000V963.168H0V961.326Z" fill="black"/>
<path d="M0 965.009H2000V966.851H0V965.009Z" fill="black"/>
<path d="M0 968.692H2000V970.534H0V968.692Z" fill="black"/>
<path d="M0 972.376H2000V974.217H0V972.376Z" fill="black"/>
<path d="M0 976.059H2000V977.901H0V976.059Z" fill="black"/>
<path d="M0 979.742H2000V981.584H0V979.742Z" fill="black"/>
<path d="M0 983.425H2000V985.267H0V983.425Z" fill="black"/>
<path d="M0 987.109H2000V988.95H0V987.109Z" fill="black"/>
<path d="M0 990.792H2000V992.634H0V990.792Z" fill="black"/>
<path d="M0 994.475H2000V996.317H0V994.475Z" fill="black"/>
<path d="M0 998.158H2000V1000H0V998.158Z" fill="black"/>
</g>
<g filter="url(#filter2_ddddiiif_44_5919)">
<path d="M50 48H114V64H98V80H82V96H66V112H82V128H98V144H114V160H162V144H130V128H114V112H98V96H114V80H130V64H162V48H178V176H50V48ZM194 48H258V64H274V80H290V128H274V144H258V160H194V48ZM226 64V144H242V128H258V80H242V64H226ZM322 48H402V64H418V96H402V112H386V128H402V144H418V160H386V144H370V128H354V160H322V48ZM354 64V96H386V64H354ZM466 48H530V64H514V144H530V160H466V144H482V64H466V48ZM578 48H610V128H642V48H674V128H658V144H642V160H610V144H594V128H578V48ZM722 48H786V64H802V96H786V112H802V144H786V160H722V144H706V128H738V144H770V112H738V96H770V64H738V80H706V64H722V48Z" fill="#7AFF14"/>
</g>
</g>
<defs>
<filter id="filter0_dd_44_5919" x="-1" y="0" width="2002" height="1000" filterUnits="userSpaceOnUse" color-interpolation-filters="sRGB">
<feFlood flood-opacity="0" result="BackgroundImageFix"/>
<feColorMatrix in="SourceAlpha" type="matrix" values="0 0 0 0 0 0 0 0 0 0 0 0 0 0 0 0 0 0 127 0" result="hardAlpha"/>
<feOffset dx="1"/>
<feComposite in2="hardAlpha" operator="out"/>
<feColorMatrix type="matrix" values="0 0 0 0 0 0 0 0 0 1 0 0 0 0 1 0 0 0 1 0"/>
<feBlend mode="normal" in2="BackgroundImageFix" result="effect1_dropShadow_44_5919"/>
<feColorMatrix in="SourceAlpha" type="matrix" values="0 0 0 0 0 0 0 0 0 0 0 0 0 0 0 0 0 0 127 0" result="hardAlpha"/>
<feOffset dx="-1"/>
<feComposite in2="hardAlpha" operator="out"/>
<feColorMatrix type="matrix" values="0 0 0 0 1 0 0 0 0 0 0 0 0 0 1 0 0 0 1 0"/>
<feBlend mode="normal" in2="effect1_dropShadow_44_5919" result="effect2_dropShadow_44_5919"/>
<feBlend mode="normal" in="SourceGraphic" in2="effect2_dropShadow_44_5919" result="shape"/>
</filter>
<filter id="filter1_dd_44_5919" x="-1" y="0" width="2002" height="1000" filterUnits="userSpaceOnUse" color-interpolation-filters="sRGB">
<feFlood flood-opacity="0" result="BackgroundImageFix"/>
<feColorMatrix in="SourceAlpha" type="matrix" values="0 0 0 0 0 0 0 0 0 0 0 0 0 0 0 0 0 0 127 0" result="hardAlpha"/>
<feOffset dx="1"/>
<feComposite in2="hardAlpha" operator="out"/>
<feColorMatrix type="matrix" values="0 0 0 0 0 0 0 0 0 1 0 0 0 0 1 0 0 0 1 0"/>
<feBlend mode="normal" in2="BackgroundImageFix" result="effect1_dropShadow_44_5919"/>
<feColorMatrix in="SourceAlpha" type="matrix" values="0 0 0 0 0 0 0 0 0 0 0 0 0 0 0 0 0 0 127 0" result="hardAlpha"/>
<feOffset dx="-1"/>
<feComposite in2="hardAlpha" operator="out"/>
<feColorMatrix type="matrix" values="0 0 0 0 1 0 0 0 0 0 0 0 0 0 1 0 0 0 1 0"/>
<feBlend mode="normal" in2="effect1_dropShadow_44_5919" result="effect2_dropShadow_44_5919"/>
<feBlend mode="normal" in="SourceGraphic" in2="effect2_dropShadow_44_5919" result="shape"/>
</filter>
<filter id="filter2_ddddiiif_44_5919" x="46" y="47" width="760" height="147" filterUnits="userSpaceOnUse" color-interpolation-filters="sRGB">
<feFlood flood-opacity="0" result="BackgroundImageFix"/>
<feColorMatrix in="SourceAlpha" type="matrix" values="0 0 0 0 0 0 0 0 0 0 0 0 0 0 0 0 0 0 127 0" result="hardAlpha"/>
<feOffset dy="14"/>
<feGaussianBlur stdDeviation="2"/>
<feComposite in2="hardAlpha" operator="out"/>
<feColorMatrix type="matrix" values="0 0 0 0 0.16 0 0 0 0 1 0 0 0 0 0.0999999 0 0 0 0.25 0"/>
<feBlend mode="normal" in2="BackgroundImageFix" result="effect1_dropShadow_44_5919"/>
<feColorMatrix in="SourceAlpha" type="matrix" values="0 0 0 0 0 0 0 0 0 0 0 0 0 0 0 0 0 0 127 0" result="hardAlpha"/>
<feOffset dy="7"/>
<feGaussianBlur stdDeviation="2"/>
<feComposite in2="hardAlpha" operator="out"/>
<feColorMatrix type="matrix" values="0 0 0 0 1 0 0 0 0 0 0 0 0 0 0 0 0 0 0.25 0"/>
<feBlend mode="normal" in2="effect1_dropShadow_44_5919" result="effect2_dropShadow_44_5919"/>
<feColorMatrix in="SourceAlpha" type="matrix" values="0 0 0 0 0 0 0 0 0 0 0 0 0 0 0 0 0 0 127 0" result="hardAlpha"/>
<feOffset dx="1"/>
<feComposite in2="hardAlpha" operator="out"/>
<feColorMatrix type="matrix" values="0 0 0 0 0 0 0 0 0 1 0 0 0 0 1 0 0 0 1 0"/>
<feBlend mode="normal" in2="effect2_dropShadow_44_5919" result="effect3_dropShadow_44_5919"/>
<feColorMatrix in="SourceAlpha" type="matrix" values="0 0 0 0 0 0 0 0 0 0 0 0 0 0 0 0 0 0 127 0" result="hardAlpha"/>
<feOffset dx="-1"/>
<feComposite in2="hardAlpha" operator="out"/>
<feColorMatrix type="matrix" values="0 0 0 0 1 0 0 0 0 0 0 0 0 0 1 0 0 0 1 0"/>
<feBlend mode="normal" in2="effect3_dropShadow_44_5919" result="effect4_dropShadow_44_5919"/>
<feBlend mode="normal" in="SourceGraphic" in2="effect4_dropShadow_44_5919" result="shape"/>
<feColorMatrix in="SourceAlpha" type="matrix" values="0 0 0 0 0 0 0 0 0 0 0 0 0 0 0 0 0 0 127 0" result="hardAlpha"/>
<feOffset dx="1" dy="1"/>
<feGaussianBlur stdDeviation="0.5"/>
<feComposite in2="hardAlpha" operator="arithmetic" k2="-1" k3="1"/>
<feColorMatrix type="matrix" values="0 0 0 0 0.983333 0 0 0 0 1 0 0 0 0 0 0 0 0 0.34 0"/>
<feBlend mode="normal" in2="shape" result="effect5_innerShadow_44_5919"/>
<feColorMatrix in="SourceAlpha" type="matrix" values="0 0 0 0 0 0 0 0 0 0 0 0 0 0 0 0 0 0 127 0" result="hardAlpha"/>
<feOffset dx="-1" dy="-1"/>
<feGaussianBlur stdDeviation="0.5"/>
<feComposite in2="hardAlpha" operator="arithmetic" k2="-1" k3="1"/>
<feColorMatrix type="matrix" values="0 0 0 0 0 0 0 0 0 0.1 0 0 0 0 1 0 0 0 0.55 0"/>
<feBlend mode="normal" in2="effect5_innerShadow_44_5919" result="effect6_innerShadow_44_5919"/>
<feColorMatrix in="SourceAlpha" type="matrix" values="0 0 0 0 0 0 0 0 0 0 0 0 0 0 0 0 0 0 127 0" result="hardAlpha"/>
<feOffset dx="-1" dy="1"/>
<feGaussianBlur stdDeviation="0.5"/>
<feComposite in2="hardAlpha" operator="arithmetic" k2="-1" k3="1"/>
<feColorMatrix type="matrix" values="0 0 0 0 1 0 0 0 0 0 0 0 0 0 0 0 0 0 0.3 0"/>
<feBlend mode="normal" in2="effect6_innerShadow_44_5919" result="effect7_innerShadow_44_5919"/>
<feGaussianBlur stdDeviation="0.5" result="effect8_foregroundBlur_44_5919"/>
</filter>
<radialGradient id="paint0_radial_44_5919" cx="0" cy="0" r="1" gradientUnits="userSpaceOnUse" gradientTransform="translate(1000 500) rotate(90) scale(500 1000)">
<stop stop-color="white"/>
<stop offset="1"/>
</radialGradient>
<radialGradient id="paint1_radial_44_5919" cx="0" cy="0" r="1" gradientTransform="matrix(-848.055 369.327 -765.176 -503.159 848.055 415.619)" gradientUnits="userSpaceOnUse">
<stop stop-color="#00FF00" stop-opacity="0.15"/>
<stop offset="0.865385" stop-color="#2FFF00" stop-opacity="0"/>
</radialGradient>
<clipPath id="clip0_44_5919">
<rect width="2000" height="1000" fill="white"/>
</clipPath>
<clipPath id="clip1_44_5919">
<rect width="2000" height="1000" fill="white"/>
</clipPath>
</defs>
</svg>
