<svg width="100" height="82" viewBox="0 0 100 82" fill="none" xmlns="http://www.w3.org/2000/svg">
<rect x="0.5" y="0.5" width="99" height="81" stroke="#00FF00"/>
<g clip-path="url(#clip0_64_172)">
<path d="M10 65L10.8 64.9552L11.6 64.9328L12.4 64.8881L13.2 64.8433L14 64.7985L14.8 64.7537L15.6 64.709L16.4 64.6642L17.2 64.6194L18 64.5746L18.8 64.5299L19.6 64.4627L20.4 64.4179L21.2 64.3507L22 64.306L22.8 64.2388L23.6 64.1716L24.4 64.1045L25.2 64.0373L26 63.9702L26.8 63.8806L27.6 63.8134L28.4 63.7239L29.2 63.6343L30 63.5448L30.8 63.4328L31.6 63.3433L32.4 63.2313L33.2 63.1194L34 63.0075L34.8 62.8731L35.6 62.7388L36.4 62.6045L37.2 62.4478L38 62.291L38.8 62.1119L39.6 61.9104L40.4 61.709L41.2 61.4851L42 61.2164L42.8 60.9478L43.6 60.6343L44.4 60.2761L45.2 59.8507L46 59.403L46.8 58.8209L47.6 58.1493L48.4 57.2985L49.2 56.2015L50 44L50.8 31.7985L51.6 30.7015L52.4 29.8507L53.2 29.1791L54 28.597L54.8 28.1493L55.6 27.7239L56.4 27.3657L57.2 27.0522L58 26.7836L58.8 26.5149L59.6 26.291L60.4 26.0896L61.2 25.8881L62 25.709L62.8 25.5522L63.6 25.3955L64.4 25.2612L65.2 25.1269L66 24.9925L66.8 24.8806L67.6 24.7687L68.4 24.6567L69.2 24.5672L70 24.4552L70.8 24.3657L71.6 24.2761L72.4 24.1866L73.2 24.1194L74 24.0299L74.8 23.9627L75.6 23.8955L76.4 23.8284L77.2 23.7612L78 23.694L78.8 23.6493L79.6 23.5821L80.4 23.5373L81.2 23.4701L82 23.4254L82.8 23.3806L83.6 23.3358L84.4 23.291L85.2 23.2463L86 23.2015L86.8 23.1567L87.6 23.1119L88.4 23.0672L89.2 23.0448L90 23" stroke="#00FF00" stroke-width="4"/>
</g>
<defs>
<clipPath id="clip0_64_172">
<rect width="80" height="62" fill="white" transform="translate(10 10)"/>
</clipPath>
</defs>
</svg>
