<svg width="495" height="62" viewBox="0 0 495 62" fill="none" xmlns="http://www.w3.org/2000/svg">
<path d="M9.5 42V22" stroke="#00FF00"/>
<path d="M5.09375 56.6055V57.582H1.1875V56.6055H5.09375ZM7.53516 59.5352H11.4414V60.5117H6.55859V57.582H7.04688V57.0938H7.53516V56.6055H9.97656V56.1172H10.4648V55.1406H9.97656V54.6523H8.02344V55.1406H7.53516V55.6289H6.55859V54.6523H7.04688V54.1641H7.53516V53.6758H10.4648V54.1641H10.9531V54.6523H11.4414V56.6055H10.9531V57.0938H10.4648V57.582H8.02344V58.0703H7.53516V59.5352ZM15.3477 54.1641V53.6758H16.3242V57.582H17.3008V58.5586H16.3242V60.5117H15.3477V58.5586H12.418V56.6055H12.9062V56.1172H13.3945V55.6289H13.8828V55.1406H14.3711V54.6523H14.8594V54.1641H15.3477ZM15.3477 57.582V55.6289H14.8594V56.1172H14.3711V56.6055H13.8828V57.0938H13.3945V57.582H15.3477Z" fill="#00FF00"/>
<path d="M5.09375 56.6055H5.34375V56.3555H5.09375V56.6055ZM5.09375 57.582V57.832H5.34375V57.582H5.09375ZM1.1875 57.582H0.9375V57.832H1.1875V57.582ZM1.1875 56.6055V56.3555H0.9375V56.6055H1.1875ZM5.09375 56.6055H4.84375V57.582H5.09375H5.34375V56.6055H5.09375ZM5.09375 57.582V57.332H1.1875V57.582V57.832H5.09375V57.582ZM1.1875 57.582H1.4375V56.6055H1.1875H0.9375V57.582H1.1875ZM1.1875 56.6055V56.8555H5.09375V56.6055V56.3555H1.1875V56.6055ZM7.53516 59.5352H7.28516V59.7852H7.53516V59.5352ZM11.4414 59.5352H11.6914V59.2852H11.4414V59.5352ZM11.4414 60.5117V60.7617H11.6914V60.5117H11.4414ZM6.55859 60.5117H6.30859V60.7617H6.55859V60.5117ZM6.55859 57.582V57.332H6.30859V57.582H6.55859ZM7.04688 57.582V57.832H7.29688V57.582H7.04688ZM7.04688 57.0938V56.8438H6.79688V57.0938H7.04688ZM7.53516 57.0938V57.3438H7.78516V57.0938H7.53516ZM7.53516 56.6055V56.3555H7.28516V56.6055H7.53516ZM9.97656 56.6055V56.8555H10.2266V56.6055H9.97656ZM9.97656 56.1172V55.8672H9.72656V56.1172H9.97656ZM10.4648 56.1172V56.3672H10.7148V56.1172H10.4648ZM10.4648 55.1406H10.7148V54.8906H10.4648V55.1406ZM9.97656 55.1406H9.72656V55.3906H9.97656V55.1406ZM9.97656 54.6523H10.2266V54.4023H9.97656V54.6523ZM8.02344 54.6523V54.4023H7.77344V54.6523H8.02344ZM8.02344 55.1406V55.3906H8.27344V55.1406H8.02344ZM7.53516 55.1406V54.8906H7.28516V55.1406H7.53516ZM7.53516 55.6289V55.8789H7.78516V55.6289H7.53516ZM6.55859 55.6289H6.30859V55.8789H6.55859V55.6289ZM6.55859 54.6523V54.4023H6.30859V54.6523H6.55859ZM7.04688 54.6523V54.9023H7.29688V54.6523H7.04688ZM7.04688 54.1641V53.9141H6.79688V54.1641H7.04688ZM7.53516 54.1641V54.4141H7.78516V54.1641H7.53516ZM7.53516 53.6758V53.4258H7.28516V53.6758H7.53516ZM10.4648 53.6758H10.7148V53.4258H10.4648V53.6758ZM10.4648 54.1641H10.2148V54.4141H10.4648V54.1641ZM10.9531 54.1641H11.2031V53.9141H10.9531V54.1641ZM10.9531 54.6523H10.7031V54.9023H10.9531V54.6523ZM11.4414 54.6523H11.6914V54.4023H11.4414V54.6523ZM11.4414 56.6055V56.8555H11.6914V56.6055H11.4414ZM10.9531 56.6055V56.3555H10.7031V56.6055H10.9531ZM10.9531 57.0938V57.3438H11.2031V57.0938H10.9531ZM10.4648 57.0938V56.8438H10.2148V57.0938H10.4648ZM10.4648 57.582V57.832H10.7148V57.582H10.4648ZM8.02344 57.582V57.332H7.77344V57.582H8.02344ZM8.02344 58.0703V58.3203H8.27344V58.0703H8.02344ZM7.53516 58.0703V57.8203H7.28516V58.0703H7.53516ZM7.53516 59.5352V59.7852H11.4414V59.5352V59.2852H7.53516V59.5352ZM11.4414 59.5352H11.1914V60.5117H11.4414H11.6914V59.5352H11.4414ZM11.4414 60.5117V60.2617H6.55859V60.5117V60.7617H11.4414V60.5117ZM6.55859 60.5117H6.80859V57.582H6.55859H6.30859V60.5117H6.55859ZM6.55859 57.582V57.832H7.04688V57.582V57.332H6.55859V57.582ZM7.04688 57.582H7.29688V57.0938H7.04688H6.79688V57.582H7.04688ZM7.04688 57.0938V57.3438H7.53516V57.0938V56.8438H7.04688V57.0938ZM7.53516 57.0938H7.78516V56.6055H7.53516H7.28516V57.0938H7.53516ZM7.53516 56.6055V56.8555H9.97656V56.6055V56.3555H7.53516V56.6055ZM9.97656 56.6055H10.2266V56.1172H9.97656H9.72656V56.6055H9.97656ZM9.97656 56.1172V56.3672H10.4648V56.1172V55.8672H9.97656V56.1172ZM10.4648 56.1172H10.7148V55.1406H10.4648H10.2148V56.1172H10.4648ZM10.4648 55.1406V54.8906H9.97656V55.1406V55.3906H10.4648V55.1406ZM9.97656 55.1406H10.2266V54.6523H9.97656H9.72656V55.1406H9.97656ZM9.97656 54.6523V54.4023H8.02344V54.6523V54.9023H9.97656V54.6523ZM8.02344 54.6523H7.77344V55.1406H8.02344H8.27344V54.6523H8.02344ZM8.02344 55.1406V54.8906H7.53516V55.1406V55.3906H8.02344V55.1406ZM7.53516 55.1406H7.28516V55.6289H7.53516H7.78516V55.1406H7.53516ZM7.53516 55.6289V55.3789H6.55859V55.6289V55.8789H7.53516V55.6289ZM6.55859 55.6289H6.80859V54.6523H6.55859H6.30859V55.6289H6.55859ZM6.55859 54.6523V54.9023H7.04688V54.6523V54.4023H6.55859V54.6523ZM7.04688 54.6523H7.29688V54.1641H7.04688H6.79688V54.6523H7.04688ZM7.04688 54.1641V54.4141H7.53516V54.1641V53.9141H7.04688V54.1641ZM7.53516 54.1641H7.78516V53.6758H7.53516H7.28516V54.1641H7.53516ZM7.53516 53.6758V53.9258H10.4648V53.6758V53.4258H7.53516V53.6758ZM10.4648 53.6758H10.2148V54.1641H10.4648H10.7148V53.6758H10.4648ZM10.4648 54.1641V54.4141H10.9531V54.1641V53.9141H10.4648V54.1641ZM10.9531 54.1641H10.7031V54.6523H10.9531H11.2031V54.1641H10.9531ZM10.9531 54.6523V54.9023H11.4414V54.6523V54.4023H10.9531V54.6523ZM11.4414 54.6523H11.1914V56.6055H11.4414H11.6914V54.6523H11.4414ZM11.4414 56.6055V56.3555H10.9531V56.6055V56.8555H11.4414V56.6055ZM10.9531 56.6055H10.7031V57.0938H10.9531H11.2031V56.6055H10.9531ZM10.9531 57.0938V56.8438H10.4648V57.0938V57.3438H10.9531V57.0938ZM10.4648 57.0938H10.2148V57.582H10.4648H10.7148V57.0938H10.4648ZM10.4648 57.582V57.332H8.02344V57.582V57.832H10.4648V57.582ZM8.02344 57.582H7.77344V58.0703H8.02344H8.27344V57.582H8.02344ZM8.02344 58.0703V57.8203H7.53516V58.0703V58.3203H8.02344V58.0703ZM7.53516 58.0703H7.28516V59.5352H7.53516H7.78516V58.0703H7.53516ZM15.3477 54.1641V54.4141H15.5977V54.1641H15.3477ZM15.3477 53.6758V53.4258H15.0977V53.6758H15.3477ZM16.3242 53.6758H16.5742V53.4258H16.3242V53.6758ZM16.3242 57.582H16.0742V57.832H16.3242V57.582ZM17.3008 57.582H17.5508V57.332H17.3008V57.582ZM17.3008 58.5586V58.8086H17.5508V58.5586H17.3008ZM16.3242 58.5586V58.3086H16.0742V58.5586H16.3242ZM16.3242 60.5117V60.7617H16.5742V60.5117H16.3242ZM15.3477 60.5117H15.0977V60.7617H15.3477V60.5117ZM15.3477 58.5586H15.5977V58.3086H15.3477V58.5586ZM12.418 58.5586H12.168V58.8086H12.418V58.5586ZM12.418 56.6055V56.3555H12.168V56.6055H12.418ZM12.9062 56.6055V56.8555H13.1562V56.6055H12.9062ZM12.9062 56.1172V55.8672H12.6562V56.1172H12.9062ZM13.3945 56.1172V56.3672H13.6445V56.1172H13.3945ZM13.3945 55.6289V55.3789H13.1445V55.6289H13.3945ZM13.8828 55.6289V55.8789H14.1328V55.6289H13.8828ZM13.8828 55.1406V54.8906H13.6328V55.1406H13.8828ZM14.3711 55.1406V55.3906H14.6211V55.1406H14.3711ZM14.3711 54.6523V54.4023H14.1211V54.6523H14.3711ZM14.8594 54.6523V54.9023H15.1094V54.6523H14.8594ZM14.8594 54.1641V53.9141H14.6094V54.1641H14.8594ZM15.3477 57.582V57.832H15.5977V57.582H15.3477ZM15.3477 55.6289H15.5977V55.3789H15.3477V55.6289ZM14.8594 55.6289V55.3789H14.6094V55.6289H14.8594ZM14.8594 56.1172V56.3672H15.1094V56.1172H14.8594ZM14.3711 56.1172V55.8672H14.1211V56.1172H14.3711ZM14.3711 56.6055V56.8555H14.6211V56.6055H14.3711ZM13.8828 56.6055V56.3555H13.6328V56.6055H13.8828ZM13.8828 57.0938V57.3438H14.1328V57.0938H13.8828ZM13.3945 57.0938V56.8438H13.1445V57.0938H13.3945ZM13.3945 57.582H13.1445V57.832H13.3945V57.582ZM15.3477 54.1641H15.5977V53.6758H15.3477H15.0977V54.1641H15.3477ZM15.3477 53.6758V53.9258H16.3242V53.6758V53.4258H15.3477V53.6758ZM16.3242 53.6758H16.0742V57.582H16.3242H16.5742V53.6758H16.3242ZM16.3242 57.582V57.832H17.3008V57.582V57.332H16.3242V57.582ZM17.3008 57.582H17.0508V58.5586H17.3008H17.5508V57.582H17.3008ZM17.3008 58.5586V58.3086H16.3242V58.5586V58.8086H17.3008V58.5586ZM16.3242 58.5586H16.0742V60.5117H16.3242H16.5742V58.5586H16.3242ZM16.3242 60.5117V60.2617H15.3477V60.5117V60.7617H16.3242V60.5117ZM15.3477 60.5117H15.5977V58.5586H15.3477H15.0977V60.5117H15.3477ZM15.3477 58.5586V58.3086H12.418V58.5586V58.8086H15.3477V58.5586ZM12.418 58.5586H12.668V56.6055H12.418H12.168V58.5586H12.418ZM12.418 56.6055V56.8555H12.9062V56.6055V56.3555H12.418V56.6055ZM12.9062 56.6055H13.1562V56.1172H12.9062H12.6562V56.6055H12.9062ZM12.9062 56.1172V56.3672H13.3945V56.1172V55.8672H12.9062V56.1172ZM13.3945 56.1172H13.6445V55.6289H13.3945H13.1445V56.1172H13.3945ZM13.3945 55.6289V55.8789H13.8828V55.6289V55.3789H13.3945V55.6289ZM13.8828 55.6289H14.1328V55.1406H13.8828H13.6328V55.6289H13.8828ZM13.8828 55.1406V55.3906H14.3711V55.1406V54.8906H13.8828V55.1406ZM14.3711 55.1406H14.6211V54.6523H14.3711H14.1211V55.1406H14.3711ZM14.3711 54.6523V54.9023H14.8594V54.6523V54.4023H14.3711V54.6523ZM14.8594 54.6523H15.1094V54.1641H14.8594H14.6094V54.6523H14.8594ZM14.8594 54.1641V54.4141H15.3477V54.1641V53.9141H14.8594V54.1641ZM15.3477 57.582H15.5977V55.6289H15.3477H15.0977V57.582H15.3477ZM15.3477 55.6289V55.3789H14.8594V55.6289V55.8789H15.3477V55.6289ZM14.8594 55.6289H14.6094V56.1172H14.8594H15.1094V55.6289H14.8594ZM14.8594 56.1172V55.8672H14.3711V56.1172V56.3672H14.8594V56.1172ZM14.3711 56.1172H14.1211V56.6055H14.3711H14.6211V56.1172H14.3711ZM14.3711 56.6055V56.3555H13.8828V56.6055V56.8555H14.3711V56.6055ZM13.8828 56.6055H13.6328V57.0938H13.8828H14.1328V56.6055H13.8828ZM13.8828 57.0938V56.8438H13.3945V57.0938V57.3438H13.8828V57.0938ZM13.3945 57.0938H13.1445V57.582H13.3945H13.6445V57.0938H13.3945ZM13.3945 57.582V57.832H15.3477V57.582V57.332H13.3945V57.582Z" fill="#00FF00"/>
<path d="M19.5 42V32" stroke="#00FF00"/>
<path d="M29.5 42V32" stroke="#00FF00"/>
<path d="M39.5 42V32" stroke="#00FF00"/>
<path d="M49.5 42V32" stroke="#00FF00"/>
<path d="M59.5 42V32" stroke="#00FF00"/>
<path d="M69.5 42V22" stroke="#00FF00"/>
<path d="M79.5 42V32" stroke="#00FF00"/>
<path d="M89.5 42V32" stroke="#00FF00"/>
<path d="M99.5 42V32" stroke="#00FF00"/>
<path d="M109.5 42V32" stroke="#00FF00"/>
<path d="M119.5 42V32" stroke="#00FF00"/>
<path d="M129.5 42V22" stroke="#00FF00"/>
<path d="M125.594 56.6055V57.582H121.688V56.6055H125.594ZM129.988 59.5352H130.965V60.5117H128.035V59.5352H129.012V55.6289H128.035V54.6523H128.523V54.1641H129.012V53.6758H129.988V59.5352ZM133.895 59.5352H137.801V60.5117H132.918V57.582H133.406V57.0938H133.895V56.6055H136.336V56.1172H136.824V55.1406H136.336V54.6523H134.383V55.1406H133.895V55.6289H132.918V54.6523H133.406V54.1641H133.895V53.6758H136.824V54.1641H137.312V54.6523H137.801V56.6055H137.312V57.0938H136.824V57.582H134.383V58.0703H133.895V59.5352Z" fill="#00FF00"/>
<path d="M125.594 56.6055H125.844V56.3555H125.594V56.6055ZM125.594 57.582V57.832H125.844V57.582H125.594ZM121.688 57.582H121.438V57.832H121.688V57.582ZM121.688 56.6055V56.3555H121.438V56.6055H121.688ZM125.594 56.6055H125.344V57.582H125.594H125.844V56.6055H125.594ZM125.594 57.582V57.332H121.688V57.582V57.832H125.594V57.582ZM121.688 57.582H121.938V56.6055H121.688H121.438V57.582H121.688ZM121.688 56.6055V56.8555H125.594V56.6055V56.3555H121.688V56.6055ZM129.988 59.5352H129.738V59.7852H129.988V59.5352ZM130.965 59.5352H131.215V59.2852H130.965V59.5352ZM130.965 60.5117V60.7617H131.215V60.5117H130.965ZM128.035 60.5117H127.785V60.7617H128.035V60.5117ZM128.035 59.5352V59.2852H127.785V59.5352H128.035ZM129.012 59.5352V59.7852H129.262V59.5352H129.012ZM129.012 55.6289H129.262V55.3789H129.012V55.6289ZM128.035 55.6289H127.785V55.8789H128.035V55.6289ZM128.035 54.6523V54.4023H127.785V54.6523H128.035ZM128.523 54.6523V54.9023H128.773V54.6523H128.523ZM128.523 54.1641V53.9141H128.273V54.1641H128.523ZM129.012 54.1641V54.4141H129.262V54.1641H129.012ZM129.012 53.6758V53.4258H128.762V53.6758H129.012ZM129.988 53.6758H130.238V53.4258H129.988V53.6758ZM129.988 59.5352V59.7852H130.965V59.5352V59.2852H129.988V59.5352ZM130.965 59.5352H130.715V60.5117H130.965H131.215V59.5352H130.965ZM130.965 60.5117V60.2617H128.035V60.5117V60.7617H130.965V60.5117ZM128.035 60.5117H128.285V59.5352H128.035H127.785V60.5117H128.035ZM128.035 59.5352V59.7852H129.012V59.5352V59.2852H128.035V59.5352ZM129.012 59.5352H129.262V55.6289H129.012H128.762V59.5352H129.012ZM129.012 55.6289V55.3789H128.035V55.6289V55.8789H129.012V55.6289ZM128.035 55.6289H128.285V54.6523H128.035H127.785V55.6289H128.035ZM128.035 54.6523V54.9023H128.523V54.6523V54.4023H128.035V54.6523ZM128.523 54.6523H128.773V54.1641H128.523H128.273V54.6523H128.523ZM128.523 54.1641V54.4141H129.012V54.1641V53.9141H128.523V54.1641ZM129.012 54.1641H129.262V53.6758H129.012H128.762V54.1641H129.012ZM129.012 53.6758V53.9258H129.988V53.6758V53.4258H129.012V53.6758ZM129.988 53.6758H129.738V59.5352H129.988H130.238V53.6758H129.988ZM133.895 59.5352H133.645V59.7852H133.895V59.5352ZM137.801 59.5352H138.051V59.2852H137.801V59.5352ZM137.801 60.5117V60.7617H138.051V60.5117H137.801ZM132.918 60.5117H132.668V60.7617H132.918V60.5117ZM132.918 57.582V57.332H132.668V57.582H132.918ZM133.406 57.582V57.832H133.656V57.582H133.406ZM133.406 57.0938V56.8438H133.156V57.0938H133.406ZM133.895 57.0938V57.3438H134.145V57.0938H133.895ZM133.895 56.6055V56.3555H133.645V56.6055H133.895ZM136.336 56.6055V56.8555H136.586V56.6055H136.336ZM136.336 56.1172V55.8672H136.086V56.1172H136.336ZM136.824 56.1172V56.3672H137.074V56.1172H136.824ZM136.824 55.1406H137.074V54.8906H136.824V55.1406ZM136.336 55.1406H136.086V55.3906H136.336V55.1406ZM136.336 54.6523H136.586V54.4023H136.336V54.6523ZM134.383 54.6523V54.4023H134.133V54.6523H134.383ZM134.383 55.1406V55.3906H134.633V55.1406H134.383ZM133.895 55.1406V54.8906H133.645V55.1406H133.895ZM133.895 55.6289V55.8789H134.145V55.6289H133.895ZM132.918 55.6289H132.668V55.8789H132.918V55.6289ZM132.918 54.6523V54.4023H132.668V54.6523H132.918ZM133.406 54.6523V54.9023H133.656V54.6523H133.406ZM133.406 54.1641V53.9141H133.156V54.1641H133.406ZM133.895 54.1641V54.4141H134.145V54.1641H133.895ZM133.895 53.6758V53.4258H133.645V53.6758H133.895ZM136.824 53.6758H137.074V53.4258H136.824V53.6758ZM136.824 54.1641H136.574V54.4141H136.824V54.1641ZM137.312 54.1641H137.562V53.9141H137.312V54.1641ZM137.312 54.6523H137.062V54.9023H137.312V54.6523ZM137.801 54.6523H138.051V54.4023H137.801V54.6523ZM137.801 56.6055V56.8555H138.051V56.6055H137.801ZM137.312 56.6055V56.3555H137.062V56.6055H137.312ZM137.312 57.0938V57.3438H137.562V57.0938H137.312ZM136.824 57.0938V56.8438H136.574V57.0938H136.824ZM136.824 57.582V57.832H137.074V57.582H136.824ZM134.383 57.582V57.332H134.133V57.582H134.383ZM134.383 58.0703V58.3203H134.633V58.0703H134.383ZM133.895 58.0703V57.8203H133.645V58.0703H133.895ZM133.895 59.5352V59.7852H137.801V59.5352V59.2852H133.895V59.5352ZM137.801 59.5352H137.551V60.5117H137.801H138.051V59.5352H137.801ZM137.801 60.5117V60.2617H132.918V60.5117V60.7617H137.801V60.5117ZM132.918 60.5117H133.168V57.582H132.918H132.668V60.5117H132.918ZM132.918 57.582V57.832H133.406V57.582V57.332H132.918V57.582ZM133.406 57.582H133.656V57.0938H133.406H133.156V57.582H133.406ZM133.406 57.0938V57.3438H133.895V57.0938V56.8438H133.406V57.0938ZM133.895 57.0938H134.145V56.6055H133.895H133.645V57.0938H133.895ZM133.895 56.6055V56.8555H136.336V56.6055V56.3555H133.895V56.6055ZM136.336 56.6055H136.586V56.1172H136.336H136.086V56.6055H136.336ZM136.336 56.1172V56.3672H136.824V56.1172V55.8672H136.336V56.1172ZM136.824 56.1172H137.074V55.1406H136.824H136.574V56.1172H136.824ZM136.824 55.1406V54.8906H136.336V55.1406V55.3906H136.824V55.1406ZM136.336 55.1406H136.586V54.6523H136.336H136.086V55.1406H136.336ZM136.336 54.6523V54.4023H134.383V54.6523V54.9023H136.336V54.6523ZM134.383 54.6523H134.133V55.1406H134.383H134.633V54.6523H134.383ZM134.383 55.1406V54.8906H133.895V55.1406V55.3906H134.383V55.1406ZM133.895 55.1406H133.645V55.6289H133.895H134.145V55.1406H133.895ZM133.895 55.6289V55.3789H132.918V55.6289V55.8789H133.895V55.6289ZM132.918 55.6289H133.168V54.6523H132.918H132.668V55.6289H132.918ZM132.918 54.6523V54.9023H133.406V54.6523V54.4023H132.918V54.6523ZM133.406 54.6523H133.656V54.1641H133.406H133.156V54.6523H133.406ZM133.406 54.1641V54.4141H133.895V54.1641V53.9141H133.406V54.1641ZM133.895 54.1641H134.145V53.6758H133.895H133.645V54.1641H133.895ZM133.895 53.6758V53.9258H136.824V53.6758V53.4258H133.895V53.6758ZM136.824 53.6758H136.574V54.1641H136.824H137.074V53.6758H136.824ZM136.824 54.1641V54.4141H137.312V54.1641V53.9141H136.824V54.1641ZM137.312 54.1641H137.062V54.6523H137.312H137.562V54.1641H137.312ZM137.312 54.6523V54.9023H137.801V54.6523V54.4023H137.312V54.6523ZM137.801 54.6523H137.551V56.6055H137.801H138.051V54.6523H137.801ZM137.801 56.6055V56.3555H137.312V56.6055V56.8555H137.801V56.6055ZM137.312 56.6055H137.062V57.0938H137.312H137.562V56.6055H137.312ZM137.312 57.0938V56.8438H136.824V57.0938V57.3438H137.312V57.0938ZM136.824 57.0938H136.574V57.582H136.824H137.074V57.0938H136.824ZM136.824 57.582V57.332H134.383V57.582V57.832H136.824V57.582ZM134.383 57.582H134.133V58.0703H134.383H134.633V57.582H134.383ZM134.383 58.0703V57.8203H133.895V58.0703V58.3203H134.383V58.0703ZM133.895 58.0703H133.645V59.5352H133.895H134.145V58.0703H133.895Z" fill="#00FF00"/>
<path d="M65.5938 56.6055V57.582H61.6875V56.6055H65.5938ZM69.9883 59.5352H70.9648V60.5117H68.0352V59.5352H69.0117V55.6289H68.0352V54.6523H68.5234V54.1641H69.0117V53.6758H69.9883V59.5352ZM74.3828 59.5352H76.3359V59.0469H76.8242V58.0703H76.3359V57.582H74.3828V58.0703H73.8945V59.0469H74.3828V59.5352ZM76.8242 60.0234V60.5117H73.8945V60.0234H73.4062V59.5352H72.918V57.582H73.4062V56.6055H72.918V54.6523H73.4062V54.1641H73.8945V53.6758H76.8242V54.1641H77.3125V54.6523H77.8008V56.6055H77.3125V57.582H77.8008V59.5352H77.3125V60.0234H76.8242ZM76.3359 54.6523H74.3828V55.1406H73.8945V56.1172H74.3828V56.6055H76.3359V56.1172H76.8242V55.1406H76.3359V54.6523Z" fill="#00FF00"/>
<path d="M65.5938 56.6055H65.8438V56.3555H65.5938V56.6055ZM65.5938 57.582V57.832H65.8438V57.582H65.5938ZM61.6875 57.582H61.4375V57.832H61.6875V57.582ZM61.6875 56.6055V56.3555H61.4375V56.6055H61.6875ZM65.5938 56.6055H65.3438V57.582H65.5938H65.8438V56.6055H65.5938ZM65.5938 57.582V57.332H61.6875V57.582V57.832H65.5938V57.582ZM61.6875 57.582H61.9375V56.6055H61.6875H61.4375V57.582H61.6875ZM61.6875 56.6055V56.8555H65.5938V56.6055V56.3555H61.6875V56.6055ZM69.9883 59.5352H69.7383V59.7852H69.9883V59.5352ZM70.9648 59.5352H71.2148V59.2852H70.9648V59.5352ZM70.9648 60.5117V60.7617H71.2148V60.5117H70.9648ZM68.0352 60.5117H67.7852V60.7617H68.0352V60.5117ZM68.0352 59.5352V59.2852H67.7852V59.5352H68.0352ZM69.0117 59.5352V59.7852H69.2617V59.5352H69.0117ZM69.0117 55.6289H69.2617V55.3789H69.0117V55.6289ZM68.0352 55.6289H67.7852V55.8789H68.0352V55.6289ZM68.0352 54.6523V54.4023H67.7852V54.6523H68.0352ZM68.5234 54.6523V54.9023H68.7734V54.6523H68.5234ZM68.5234 54.1641V53.9141H68.2734V54.1641H68.5234ZM69.0117 54.1641V54.4141H69.2617V54.1641H69.0117ZM69.0117 53.6758V53.4258H68.7617V53.6758H69.0117ZM69.9883 53.6758H70.2383V53.4258H69.9883V53.6758ZM69.9883 59.5352V59.7852H70.9648V59.5352V59.2852H69.9883V59.5352ZM70.9648 59.5352H70.7148V60.5117H70.9648H71.2148V59.5352H70.9648ZM70.9648 60.5117V60.2617H68.0352V60.5117V60.7617H70.9648V60.5117ZM68.0352 60.5117H68.2852V59.5352H68.0352H67.7852V60.5117H68.0352ZM68.0352 59.5352V59.7852H69.0117V59.5352V59.2852H68.0352V59.5352ZM69.0117 59.5352H69.2617V55.6289H69.0117H68.7617V59.5352H69.0117ZM69.0117 55.6289V55.3789H68.0352V55.6289V55.8789H69.0117V55.6289ZM68.0352 55.6289H68.2852V54.6523H68.0352H67.7852V55.6289H68.0352ZM68.0352 54.6523V54.9023H68.5234V54.6523V54.4023H68.0352V54.6523ZM68.5234 54.6523H68.7734V54.1641H68.5234H68.2734V54.6523H68.5234ZM68.5234 54.1641V54.4141H69.0117V54.1641V53.9141H68.5234V54.1641ZM69.0117 54.1641H69.2617V53.6758H69.0117H68.7617V54.1641H69.0117ZM69.0117 53.6758V53.9258H69.9883V53.6758V53.4258H69.0117V53.6758ZM69.9883 53.6758H69.7383V59.5352H69.9883H70.2383V53.6758H69.9883ZM74.3828 59.5352H74.1328V59.7852H74.3828V59.5352ZM76.3359 59.5352V59.7852H76.5859V59.5352H76.3359ZM76.3359 59.0469V58.7969H76.0859V59.0469H76.3359ZM76.8242 59.0469V59.2969H77.0742V59.0469H76.8242ZM76.8242 58.0703H77.0742V57.8203H76.8242V58.0703ZM76.3359 58.0703H76.0859V58.3203H76.3359V58.0703ZM76.3359 57.582H76.5859V57.332H76.3359V57.582ZM74.3828 57.582V57.332H74.1328V57.582H74.3828ZM74.3828 58.0703V58.3203H74.6328V58.0703H74.3828ZM73.8945 58.0703V57.8203H73.6445V58.0703H73.8945ZM73.8945 59.0469H73.6445V59.2969H73.8945V59.0469ZM74.3828 59.0469H74.6328V58.7969H74.3828V59.0469ZM76.8242 60.0234V59.7734H76.5742V60.0234H76.8242ZM76.8242 60.5117V60.7617H77.0742V60.5117H76.8242ZM73.8945 60.5117H73.6445V60.7617H73.8945V60.5117ZM73.8945 60.0234H74.1445V59.7734H73.8945V60.0234ZM73.4062 60.0234H73.1562V60.2734H73.4062V60.0234ZM73.4062 59.5352H73.6562V59.2852H73.4062V59.5352ZM72.918 59.5352H72.668V59.7852H72.918V59.5352ZM72.918 57.582V57.332H72.668V57.582H72.918ZM73.4062 57.582V57.832H73.6562V57.582H73.4062ZM73.4062 56.6055H73.6562V56.3555H73.4062V56.6055ZM72.918 56.6055H72.668V56.8555H72.918V56.6055ZM72.918 54.6523V54.4023H72.668V54.6523H72.918ZM73.4062 54.6523V54.9023H73.6562V54.6523H73.4062ZM73.4062 54.1641V53.9141H73.1562V54.1641H73.4062ZM73.8945 54.1641V54.4141H74.1445V54.1641H73.8945ZM73.8945 53.6758V53.4258H73.6445V53.6758H73.8945ZM76.8242 53.6758H77.0742V53.4258H76.8242V53.6758ZM76.8242 54.1641H76.5742V54.4141H76.8242V54.1641ZM77.3125 54.1641H77.5625V53.9141H77.3125V54.1641ZM77.3125 54.6523H77.0625V54.9023H77.3125V54.6523ZM77.8008 54.6523H78.0508V54.4023H77.8008V54.6523ZM77.8008 56.6055V56.8555H78.0508V56.6055H77.8008ZM77.3125 56.6055V56.3555H77.0625V56.6055H77.3125ZM77.3125 57.582H77.0625V57.832H77.3125V57.582ZM77.8008 57.582H78.0508V57.332H77.8008V57.582ZM77.8008 59.5352V59.7852H78.0508V59.5352H77.8008ZM77.3125 59.5352V59.2852H77.0625V59.5352H77.3125ZM77.3125 60.0234V60.2734H77.5625V60.0234H77.3125ZM76.3359 54.6523H76.5859V54.4023H76.3359V54.6523ZM74.3828 54.6523V54.4023H74.1328V54.6523H74.3828ZM74.3828 55.1406V55.3906H74.6328V55.1406H74.3828ZM73.8945 55.1406V54.8906H73.6445V55.1406H73.8945ZM73.8945 56.1172H73.6445V56.3672H73.8945V56.1172ZM74.3828 56.1172H74.6328V55.8672H74.3828V56.1172ZM74.3828 56.6055H74.1328V56.8555H74.3828V56.6055ZM76.3359 56.6055V56.8555H76.5859V56.6055H76.3359ZM76.3359 56.1172V55.8672H76.0859V56.1172H76.3359ZM76.8242 56.1172V56.3672H77.0742V56.1172H76.8242ZM76.8242 55.1406H77.0742V54.8906H76.8242V55.1406ZM76.3359 55.1406H76.0859V55.3906H76.3359V55.1406ZM74.3828 59.5352V59.7852H76.3359V59.5352V59.2852H74.3828V59.5352ZM76.3359 59.5352H76.5859V59.0469H76.3359H76.0859V59.5352H76.3359ZM76.3359 59.0469V59.2969H76.8242V59.0469V58.7969H76.3359V59.0469ZM76.8242 59.0469H77.0742V58.0703H76.8242H76.5742V59.0469H76.8242ZM76.8242 58.0703V57.8203H76.3359V58.0703V58.3203H76.8242V58.0703ZM76.3359 58.0703H76.5859V57.582H76.3359H76.0859V58.0703H76.3359ZM76.3359 57.582V57.332H74.3828V57.582V57.832H76.3359V57.582ZM74.3828 57.582H74.1328V58.0703H74.3828H74.6328V57.582H74.3828ZM74.3828 58.0703V57.8203H73.8945V58.0703V58.3203H74.3828V58.0703ZM73.8945 58.0703H73.6445V59.0469H73.8945H74.1445V58.0703H73.8945ZM73.8945 59.0469V59.2969H74.3828V59.0469V58.7969H73.8945V59.0469ZM74.3828 59.0469H74.1328V59.5352H74.3828H74.6328V59.0469H74.3828ZM76.8242 60.0234H76.5742V60.5117H76.8242H77.0742V60.0234H76.8242ZM76.8242 60.5117V60.2617H73.8945V60.5117V60.7617H76.8242V60.5117ZM73.8945 60.5117H74.1445V60.0234H73.8945H73.6445V60.5117H73.8945ZM73.8945 60.0234V59.7734H73.4062V60.0234V60.2734H73.8945V60.0234ZM73.4062 60.0234H73.6562V59.5352H73.4062H73.1562V60.0234H73.4062ZM73.4062 59.5352V59.2852H72.918V59.5352V59.7852H73.4062V59.5352ZM72.918 59.5352H73.168V57.582H72.918H72.668V59.5352H72.918ZM72.918 57.582V57.832H73.4062V57.582V57.332H72.918V57.582ZM73.4062 57.582H73.6562V56.6055H73.4062H73.1562V57.582H73.4062ZM73.4062 56.6055V56.3555H72.918V56.6055V56.8555H73.4062V56.6055ZM72.918 56.6055H73.168V54.6523H72.918H72.668V56.6055H72.918ZM72.918 54.6523V54.9023H73.4062V54.6523V54.4023H72.918V54.6523ZM73.4062 54.6523H73.6562V54.1641H73.4062H73.1562V54.6523H73.4062ZM73.4062 54.1641V54.4141H73.8945V54.1641V53.9141H73.4062V54.1641ZM73.8945 54.1641H74.1445V53.6758H73.8945H73.6445V54.1641H73.8945ZM73.8945 53.6758V53.9258H76.8242V53.6758V53.4258H73.8945V53.6758ZM76.8242 53.6758H76.5742V54.1641H76.8242H77.0742V53.6758H76.8242ZM76.8242 54.1641V54.4141H77.3125V54.1641V53.9141H76.8242V54.1641ZM77.3125 54.1641H77.0625V54.6523H77.3125H77.5625V54.1641H77.3125ZM77.3125 54.6523V54.9023H77.8008V54.6523V54.4023H77.3125V54.6523ZM77.8008 54.6523H77.5508V56.6055H77.8008H78.0508V54.6523H77.8008ZM77.8008 56.6055V56.3555H77.3125V56.6055V56.8555H77.8008V56.6055ZM77.3125 56.6055H77.0625V57.582H77.3125H77.5625V56.6055H77.3125ZM77.3125 57.582V57.832H77.8008V57.582V57.332H77.3125V57.582ZM77.8008 57.582H77.5508V59.5352H77.8008H78.0508V57.582H77.8008ZM77.8008 59.5352V59.2852H77.3125V59.5352V59.7852H77.8008V59.5352ZM77.3125 59.5352H77.0625V60.0234H77.3125H77.5625V59.5352H77.3125ZM77.3125 60.0234V59.7734H76.8242V60.0234V60.2734H77.3125V60.0234ZM76.3359 54.6523V54.4023H74.3828V54.6523V54.9023H76.3359V54.6523ZM74.3828 54.6523H74.1328V55.1406H74.3828H74.6328V54.6523H74.3828ZM74.3828 55.1406V54.8906H73.8945V55.1406V55.3906H74.3828V55.1406ZM73.8945 55.1406H73.6445V56.1172H73.8945H74.1445V55.1406H73.8945ZM73.8945 56.1172V56.3672H74.3828V56.1172V55.8672H73.8945V56.1172ZM74.3828 56.1172H74.1328V56.6055H74.3828H74.6328V56.1172H74.3828ZM74.3828 56.6055V56.8555H76.3359V56.6055V56.3555H74.3828V56.6055ZM76.3359 56.6055H76.5859V56.1172H76.3359H76.0859V56.6055H76.3359ZM76.3359 56.1172V56.3672H76.8242V56.1172V55.8672H76.3359V56.1172ZM76.8242 56.1172H77.0742V55.1406H76.8242H76.5742V56.1172H76.8242ZM76.8242 55.1406V54.8906H76.3359V55.1406V55.3906H76.8242V55.1406ZM76.3359 55.1406H76.5859V54.6523H76.3359H76.0859V55.1406H76.3359Z" fill="#00FF00"/>
<path d="M139.5 42V32" stroke="#00FF00"/>
<path d="M149.5 42V32" stroke="#00FF00"/>
<path d="M159.5 42V32" stroke="#00FF00"/>
<path d="M169.5 42V32" stroke="#00FF00"/>
<path d="M179.5 42V32" stroke="#00FF00"/>
<path d="M189.5 42V22" stroke="#00FF00"/>
<path d="M188.023 56.6055V57.582H184.117V56.6055H188.023ZM193.395 60.0234V60.5117H190.465V60.0234H189.977V59.5352H189.488V54.6523H189.977V54.1641H190.465V53.6758H193.395V54.1641H193.883V54.6523H194.371V55.6289H193.395V55.1406H192.906V54.6523H190.953V55.1406H190.465V56.6055H193.395V57.0938H193.883V57.582H194.371V59.5352H193.883V60.0234H193.395ZM190.953 59.5352H192.906V59.0469H193.395V58.0703H192.906V57.582H190.465V59.0469H190.953V59.5352Z" fill="#00FF00"/>
<path d="M188.023 56.6055H188.273V56.3555H188.023V56.6055ZM188.023 57.582V57.832H188.273V57.582H188.023ZM184.117 57.582H183.867V57.832H184.117V57.582ZM184.117 56.6055V56.3555H183.867V56.6055H184.117ZM188.023 56.6055H187.773V57.582H188.023H188.273V56.6055H188.023ZM188.023 57.582V57.332H184.117V57.582V57.832H188.023V57.582ZM184.117 57.582H184.367V56.6055H184.117H183.867V57.582H184.117ZM184.117 56.6055V56.8555H188.023V56.6055V56.3555H184.117V56.6055ZM193.395 60.0234V59.7734H193.145V60.0234H193.395ZM193.395 60.5117V60.7617H193.645V60.5117H193.395ZM190.465 60.5117H190.215V60.7617H190.465V60.5117ZM190.465 60.0234H190.715V59.7734H190.465V60.0234ZM189.977 60.0234H189.727V60.2734H189.977V60.0234ZM189.977 59.5352H190.227V59.2852H189.977V59.5352ZM189.488 59.5352H189.238V59.7852H189.488V59.5352ZM189.488 54.6523V54.4023H189.238V54.6523H189.488ZM189.977 54.6523V54.9023H190.227V54.6523H189.977ZM189.977 54.1641V53.9141H189.727V54.1641H189.977ZM190.465 54.1641V54.4141H190.715V54.1641H190.465ZM190.465 53.6758V53.4258H190.215V53.6758H190.465ZM193.395 53.6758H193.645V53.4258H193.395V53.6758ZM193.395 54.1641H193.145V54.4141H193.395V54.1641ZM193.883 54.1641H194.133V53.9141H193.883V54.1641ZM193.883 54.6523H193.633V54.9023H193.883V54.6523ZM194.371 54.6523H194.621V54.4023H194.371V54.6523ZM194.371 55.6289V55.8789H194.621V55.6289H194.371ZM193.395 55.6289H193.145V55.8789H193.395V55.6289ZM193.395 55.1406H193.645V54.8906H193.395V55.1406ZM192.906 55.1406H192.656V55.3906H192.906V55.1406ZM192.906 54.6523H193.156V54.4023H192.906V54.6523ZM190.953 54.6523V54.4023H190.703V54.6523H190.953ZM190.953 55.1406V55.3906H191.203V55.1406H190.953ZM190.465 55.1406V54.8906H190.215V55.1406H190.465ZM190.465 56.6055H190.215V56.8555H190.465V56.6055ZM193.395 56.6055H193.645V56.3555H193.395V56.6055ZM193.395 57.0938H193.145V57.3438H193.395V57.0938ZM193.883 57.0938H194.133V56.8438H193.883V57.0938ZM193.883 57.582H193.633V57.832H193.883V57.582ZM194.371 57.582H194.621V57.332H194.371V57.582ZM194.371 59.5352V59.7852H194.621V59.5352H194.371ZM193.883 59.5352V59.2852H193.633V59.5352H193.883ZM193.883 60.0234V60.2734H194.133V60.0234H193.883ZM190.953 59.5352H190.703V59.7852H190.953V59.5352ZM192.906 59.5352V59.7852H193.156V59.5352H192.906ZM192.906 59.0469V58.7969H192.656V59.0469H192.906ZM193.395 59.0469V59.2969H193.645V59.0469H193.395ZM193.395 58.0703H193.645V57.8203H193.395V58.0703ZM192.906 58.0703H192.656V58.3203H192.906V58.0703ZM192.906 57.582H193.156V57.332H192.906V57.582ZM190.465 57.582V57.332H190.215V57.582H190.465ZM190.465 59.0469H190.215V59.2969H190.465V59.0469ZM190.953 59.0469H191.203V58.7969H190.953V59.0469ZM193.395 60.0234H193.145V60.5117H193.395H193.645V60.0234H193.395ZM193.395 60.5117V60.2617H190.465V60.5117V60.7617H193.395V60.5117ZM190.465 60.5117H190.715V60.0234H190.465H190.215V60.5117H190.465ZM190.465 60.0234V59.7734H189.977V60.0234V60.2734H190.465V60.0234ZM189.977 60.0234H190.227V59.5352H189.977H189.727V60.0234H189.977ZM189.977 59.5352V59.2852H189.488V59.5352V59.7852H189.977V59.5352ZM189.488 59.5352H189.738V54.6523H189.488H189.238V59.5352H189.488ZM189.488 54.6523V54.9023H189.977V54.6523V54.4023H189.488V54.6523ZM189.977 54.6523H190.227V54.1641H189.977H189.727V54.6523H189.977ZM189.977 54.1641V54.4141H190.465V54.1641V53.9141H189.977V54.1641ZM190.465 54.1641H190.715V53.6758H190.465H190.215V54.1641H190.465ZM190.465 53.6758V53.9258H193.395V53.6758V53.4258H190.465V53.6758ZM193.395 53.6758H193.145V54.1641H193.395H193.645V53.6758H193.395ZM193.395 54.1641V54.4141H193.883V54.1641V53.9141H193.395V54.1641ZM193.883 54.1641H193.633V54.6523H193.883H194.133V54.1641H193.883ZM193.883 54.6523V54.9023H194.371V54.6523V54.4023H193.883V54.6523ZM194.371 54.6523H194.121V55.6289H194.371H194.621V54.6523H194.371ZM194.371 55.6289V55.3789H193.395V55.6289V55.8789H194.371V55.6289ZM193.395 55.6289H193.645V55.1406H193.395H193.145V55.6289H193.395ZM193.395 55.1406V54.8906H192.906V55.1406V55.3906H193.395V55.1406ZM192.906 55.1406H193.156V54.6523H192.906H192.656V55.1406H192.906ZM192.906 54.6523V54.4023H190.953V54.6523V54.9023H192.906V54.6523ZM190.953 54.6523H190.703V55.1406H190.953H191.203V54.6523H190.953ZM190.953 55.1406V54.8906H190.465V55.1406V55.3906H190.953V55.1406ZM190.465 55.1406H190.215V56.6055H190.465H190.715V55.1406H190.465ZM190.465 56.6055V56.8555H193.395V56.6055V56.3555H190.465V56.6055ZM193.395 56.6055H193.145V57.0938H193.395H193.645V56.6055H193.395ZM193.395 57.0938V57.3438H193.883V57.0938V56.8438H193.395V57.0938ZM193.883 57.0938H193.633V57.582H193.883H194.133V57.0938H193.883ZM193.883 57.582V57.832H194.371V57.582V57.332H193.883V57.582ZM194.371 57.582H194.121V59.5352H194.371H194.621V57.582H194.371ZM194.371 59.5352V59.2852H193.883V59.5352V59.7852H194.371V59.5352ZM193.883 59.5352H193.633V60.0234H193.883H194.133V59.5352H193.883ZM193.883 60.0234V59.7734H193.395V60.0234V60.2734H193.883V60.0234ZM190.953 59.5352V59.7852H192.906V59.5352V59.2852H190.953V59.5352ZM192.906 59.5352H193.156V59.0469H192.906H192.656V59.5352H192.906ZM192.906 59.0469V59.2969H193.395V59.0469V58.7969H192.906V59.0469ZM193.395 59.0469H193.645V58.0703H193.395H193.145V59.0469H193.395ZM193.395 58.0703V57.8203H192.906V58.0703V58.3203H193.395V58.0703ZM192.906 58.0703H193.156V57.582H192.906H192.656V58.0703H192.906ZM192.906 57.582V57.332H190.465V57.582V57.832H192.906V57.582ZM190.465 57.582H190.215V59.0469H190.465H190.715V57.582H190.465ZM190.465 59.0469V59.2969H190.953V59.0469V58.7969H190.465V59.0469ZM190.953 59.0469H190.703V59.5352H190.953H191.203V59.0469H190.953Z" fill="#00FF00"/>
<path d="M199.5 42V32" stroke="#00FF00"/>
<path d="M209.5 42V32" stroke="#00FF00"/>
<path d="M219.5 42V32" stroke="#00FF00"/>
<path d="M229.5 42V32" stroke="#00FF00"/>
<path d="M239.5 42V32" stroke="#00FF00"/>
<path d="M249.5 42V22" stroke="#00FF00"/>
<path d="M248.023 57.582V57.0938H248.512V56.6055H249V56.1172H249.488V55.6289H250.465V55.1406H249.977V54.6523H248.023V55.1406H247.535V57.582H248.023ZM247.535 58.5586V59.0469H248.023V59.5352H249.977V59.0469H250.465V56.6055H249.977V57.0938H249.488V57.582H249V58.0703H248.512V58.5586H247.535ZM247.535 54.1641V53.6758H250.465V54.1641H250.953V54.6523H251.441V59.5352H250.953V60.0234H250.465V60.5117H247.535V60.0234H247.047V59.5352H246.559V54.6523H247.047V54.1641H247.535Z" fill="#00FF00"/>
<path d="M248.023 57.582V57.832H248.273V57.582H248.023ZM248.023 57.0938V56.8438H247.773V57.0938H248.023ZM248.512 57.0938V57.3438H248.762V57.0938H248.512ZM248.512 56.6055V56.3555H248.262V56.6055H248.512ZM249 56.6055V56.8555H249.25V56.6055H249ZM249 56.1172V55.8672H248.75V56.1172H249ZM249.488 56.1172V56.3672H249.738V56.1172H249.488ZM249.488 55.6289V55.3789H249.238V55.6289H249.488ZM250.465 55.6289V55.8789H250.715V55.6289H250.465ZM250.465 55.1406H250.715V54.8906H250.465V55.1406ZM249.977 55.1406H249.727V55.3906H249.977V55.1406ZM249.977 54.6523H250.227V54.4023H249.977V54.6523ZM248.023 54.6523V54.4023H247.773V54.6523H248.023ZM248.023 55.1406V55.3906H248.273V55.1406H248.023ZM247.535 55.1406V54.8906H247.285V55.1406H247.535ZM247.535 57.582H247.285V57.832H247.535V57.582ZM247.535 58.5586V58.3086H247.285V58.5586H247.535ZM247.535 59.0469H247.285V59.2969H247.535V59.0469ZM248.023 59.0469H248.273V58.7969H248.023V59.0469ZM248.023 59.5352H247.773V59.7852H248.023V59.5352ZM249.977 59.5352V59.7852H250.227V59.5352H249.977ZM249.977 59.0469V58.7969H249.727V59.0469H249.977ZM250.465 59.0469V59.2969H250.715V59.0469H250.465ZM250.465 56.6055H250.715V56.3555H250.465V56.6055ZM249.977 56.6055V56.3555H249.727V56.6055H249.977ZM249.977 57.0938V57.3438H250.227V57.0938H249.977ZM249.488 57.0938V56.8438H249.238V57.0938H249.488ZM249.488 57.582V57.832H249.738V57.582H249.488ZM249 57.582V57.332H248.75V57.582H249ZM249 58.0703V58.3203H249.25V58.0703H249ZM248.512 58.0703V57.8203H248.262V58.0703H248.512ZM248.512 58.5586V58.8086H248.762V58.5586H248.512ZM247.535 54.1641V54.4141H247.785V54.1641H247.535ZM247.535 53.6758V53.4258H247.285V53.6758H247.535ZM250.465 53.6758H250.715V53.4258H250.465V53.6758ZM250.465 54.1641H250.215V54.4141H250.465V54.1641ZM250.953 54.1641H251.203V53.9141H250.953V54.1641ZM250.953 54.6523H250.703V54.9023H250.953V54.6523ZM251.441 54.6523H251.691V54.4023H251.441V54.6523ZM251.441 59.5352V59.7852H251.691V59.5352H251.441ZM250.953 59.5352V59.2852H250.703V59.5352H250.953ZM250.953 60.0234V60.2734H251.203V60.0234H250.953ZM250.465 60.0234V59.7734H250.215V60.0234H250.465ZM250.465 60.5117V60.7617H250.715V60.5117H250.465ZM247.535 60.5117H247.285V60.7617H247.535V60.5117ZM247.535 60.0234H247.785V59.7734H247.535V60.0234ZM247.047 60.0234H246.797V60.2734H247.047V60.0234ZM247.047 59.5352H247.297V59.2852H247.047V59.5352ZM246.559 59.5352H246.309V59.7852H246.559V59.5352ZM246.559 54.6523V54.4023H246.309V54.6523H246.559ZM247.047 54.6523V54.9023H247.297V54.6523H247.047ZM247.047 54.1641V53.9141H246.797V54.1641H247.047ZM248.023 57.582H248.273V57.0938H248.023H247.773V57.582H248.023ZM248.023 57.0938V57.3438H248.512V57.0938V56.8438H248.023V57.0938ZM248.512 57.0938H248.762V56.6055H248.512H248.262V57.0938H248.512ZM248.512 56.6055V56.8555H249V56.6055V56.3555H248.512V56.6055ZM249 56.6055H249.25V56.1172H249H248.75V56.6055H249ZM249 56.1172V56.3672H249.488V56.1172V55.8672H249V56.1172ZM249.488 56.1172H249.738V55.6289H249.488H249.238V56.1172H249.488ZM249.488 55.6289V55.8789H250.465V55.6289V55.3789H249.488V55.6289ZM250.465 55.6289H250.715V55.1406H250.465H250.215V55.6289H250.465ZM250.465 55.1406V54.8906H249.977V55.1406V55.3906H250.465V55.1406ZM249.977 55.1406H250.227V54.6523H249.977H249.727V55.1406H249.977ZM249.977 54.6523V54.4023H248.023V54.6523V54.9023H249.977V54.6523ZM248.023 54.6523H247.773V55.1406H248.023H248.273V54.6523H248.023ZM248.023 55.1406V54.8906H247.535V55.1406V55.3906H248.023V55.1406ZM247.535 55.1406H247.285V57.582H247.535H247.785V55.1406H247.535ZM247.535 57.582V57.832H248.023V57.582V57.332H247.535V57.582ZM247.535 58.5586H247.285V59.0469H247.535H247.785V58.5586H247.535ZM247.535 59.0469V59.2969H248.023V59.0469V58.7969H247.535V59.0469ZM248.023 59.0469H247.773V59.5352H248.023H248.273V59.0469H248.023ZM248.023 59.5352V59.7852H249.977V59.5352V59.2852H248.023V59.5352ZM249.977 59.5352H250.227V59.0469H249.977H249.727V59.5352H249.977ZM249.977 59.0469V59.2969H250.465V59.0469V58.7969H249.977V59.0469ZM250.465 59.0469H250.715V56.6055H250.465H250.215V59.0469H250.465ZM250.465 56.6055V56.3555H249.977V56.6055V56.8555H250.465V56.6055ZM249.977 56.6055H249.727V57.0938H249.977H250.227V56.6055H249.977ZM249.977 57.0938V56.8438H249.488V57.0938V57.3438H249.977V57.0938ZM249.488 57.0938H249.238V57.582H249.488H249.738V57.0938H249.488ZM249.488 57.582V57.332H249V57.582V57.832H249.488V57.582ZM249 57.582H248.75V58.0703H249H249.25V57.582H249ZM249 58.0703V57.8203H248.512V58.0703V58.3203H249V58.0703ZM248.512 58.0703H248.262V58.5586H248.512H248.762V58.0703H248.512ZM248.512 58.5586V58.3086H247.535V58.5586V58.8086H248.512V58.5586ZM247.535 54.1641H247.785V53.6758H247.535H247.285V54.1641H247.535ZM247.535 53.6758V53.9258H250.465V53.6758V53.4258H247.535V53.6758ZM250.465 53.6758H250.215V54.1641H250.465H250.715V53.6758H250.465ZM250.465 54.1641V54.4141H250.953V54.1641V53.9141H250.465V54.1641ZM250.953 54.1641H250.703V54.6523H250.953H251.203V54.1641H250.953ZM250.953 54.6523V54.9023H251.441V54.6523V54.4023H250.953V54.6523ZM251.441 54.6523H251.191V59.5352H251.441H251.691V54.6523H251.441ZM251.441 59.5352V59.2852H250.953V59.5352V59.7852H251.441V59.5352ZM250.953 59.5352H250.703V60.0234H250.953H251.203V59.5352H250.953ZM250.953 60.0234V59.7734H250.465V60.0234V60.2734H250.953V60.0234ZM250.465 60.0234H250.215V60.5117H250.465H250.715V60.0234H250.465ZM250.465 60.5117V60.2617H247.535V60.5117V60.7617H250.465V60.5117ZM247.535 60.5117H247.785V60.0234H247.535H247.285V60.5117H247.535ZM247.535 60.0234V59.7734H247.047V60.0234V60.2734H247.535V60.0234ZM247.047 60.0234H247.297V59.5352H247.047H246.797V60.0234H247.047ZM247.047 59.5352V59.2852H246.559V59.5352V59.7852H247.047V59.5352ZM246.559 59.5352H246.809V54.6523H246.559H246.309V59.5352H246.559ZM246.559 54.6523V54.9023H247.047V54.6523V54.4023H246.559V54.6523ZM247.047 54.6523H247.297V54.1641H247.047H246.797V54.6523H247.047ZM247.047 54.1641V54.4141H247.535V54.1641V53.9141H247.047V54.1641Z" fill="#00FF00"/>
<path d="M259.5 42V32" stroke="#00FF00"/>
<path d="M269.5 42V32" stroke="#00FF00"/>
<path d="M279.5 42V32" stroke="#00FF00"/>
<path d="M289.5 42V32" stroke="#00FF00"/>
<path d="M299.5 42V32" stroke="#00FF00"/>
<path d="M309.5 42V22" stroke="#00FF00"/>
<path d="M310.465 60.0234V60.5117H307.535V60.0234H307.047V59.5352H306.559V54.6523H307.047V54.1641H307.535V53.6758H310.465V54.1641H310.953V54.6523H311.441V55.6289H310.465V55.1406H309.977V54.6523H308.023V55.1406H307.535V56.6055H310.465V57.0938H310.953V57.582H311.441V59.5352H310.953V60.0234H310.465ZM308.023 59.5352H309.977V59.0469H310.465V58.0703H309.977V57.582H307.535V59.0469H308.023V59.5352Z" fill="#00FF00"/>
<path d="M310.465 60.0234V59.7734H310.215V60.0234H310.465ZM310.465 60.5117V60.7617H310.715V60.5117H310.465ZM307.535 60.5117H307.285V60.7617H307.535V60.5117ZM307.535 60.0234H307.785V59.7734H307.535V60.0234ZM307.047 60.0234H306.797V60.2734H307.047V60.0234ZM307.047 59.5352H307.297V59.2852H307.047V59.5352ZM306.559 59.5352H306.309V59.7852H306.559V59.5352ZM306.559 54.6523V54.4023H306.309V54.6523H306.559ZM307.047 54.6523V54.9023H307.297V54.6523H307.047ZM307.047 54.1641V53.9141H306.797V54.1641H307.047ZM307.535 54.1641V54.4141H307.785V54.1641H307.535ZM307.535 53.6758V53.4258H307.285V53.6758H307.535ZM310.465 53.6758H310.715V53.4258H310.465V53.6758ZM310.465 54.1641H310.215V54.4141H310.465V54.1641ZM310.953 54.1641H311.203V53.9141H310.953V54.1641ZM310.953 54.6523H310.703V54.9023H310.953V54.6523ZM311.441 54.6523H311.691V54.4023H311.441V54.6523ZM311.441 55.6289V55.8789H311.691V55.6289H311.441ZM310.465 55.6289H310.215V55.8789H310.465V55.6289ZM310.465 55.1406H310.715V54.8906H310.465V55.1406ZM309.977 55.1406H309.727V55.3906H309.977V55.1406ZM309.977 54.6523H310.227V54.4023H309.977V54.6523ZM308.023 54.6523V54.4023H307.773V54.6523H308.023ZM308.023 55.1406V55.3906H308.273V55.1406H308.023ZM307.535 55.1406V54.8906H307.285V55.1406H307.535ZM307.535 56.6055H307.285V56.8555H307.535V56.6055ZM310.465 56.6055H310.715V56.3555H310.465V56.6055ZM310.465 57.0938H310.215V57.3438H310.465V57.0938ZM310.953 57.0938H311.203V56.8438H310.953V57.0938ZM310.953 57.582H310.703V57.832H310.953V57.582ZM311.441 57.582H311.691V57.332H311.441V57.582ZM311.441 59.5352V59.7852H311.691V59.5352H311.441ZM310.953 59.5352V59.2852H310.703V59.5352H310.953ZM310.953 60.0234V60.2734H311.203V60.0234H310.953ZM308.023 59.5352H307.773V59.7852H308.023V59.5352ZM309.977 59.5352V59.7852H310.227V59.5352H309.977ZM309.977 59.0469V58.7969H309.727V59.0469H309.977ZM310.465 59.0469V59.2969H310.715V59.0469H310.465ZM310.465 58.0703H310.715V57.8203H310.465V58.0703ZM309.977 58.0703H309.727V58.3203H309.977V58.0703ZM309.977 57.582H310.227V57.332H309.977V57.582ZM307.535 57.582V57.332H307.285V57.582H307.535ZM307.535 59.0469H307.285V59.2969H307.535V59.0469ZM308.023 59.0469H308.273V58.7969H308.023V59.0469ZM310.465 60.0234H310.215V60.5117H310.465H310.715V60.0234H310.465ZM310.465 60.5117V60.2617H307.535V60.5117V60.7617H310.465V60.5117ZM307.535 60.5117H307.785V60.0234H307.535H307.285V60.5117H307.535ZM307.535 60.0234V59.7734H307.047V60.0234V60.2734H307.535V60.0234ZM307.047 60.0234H307.297V59.5352H307.047H306.797V60.0234H307.047ZM307.047 59.5352V59.2852H306.559V59.5352V59.7852H307.047V59.5352ZM306.559 59.5352H306.809V54.6523H306.559H306.309V59.5352H306.559ZM306.559 54.6523V54.9023H307.047V54.6523V54.4023H306.559V54.6523ZM307.047 54.6523H307.297V54.1641H307.047H306.797V54.6523H307.047ZM307.047 54.1641V54.4141H307.535V54.1641V53.9141H307.047V54.1641ZM307.535 54.1641H307.785V53.6758H307.535H307.285V54.1641H307.535ZM307.535 53.6758V53.9258H310.465V53.6758V53.4258H307.535V53.6758ZM310.465 53.6758H310.215V54.1641H310.465H310.715V53.6758H310.465ZM310.465 54.1641V54.4141H310.953V54.1641V53.9141H310.465V54.1641ZM310.953 54.1641H310.703V54.6523H310.953H311.203V54.1641H310.953ZM310.953 54.6523V54.9023H311.441V54.6523V54.4023H310.953V54.6523ZM311.441 54.6523H311.191V55.6289H311.441H311.691V54.6523H311.441ZM311.441 55.6289V55.3789H310.465V55.6289V55.8789H311.441V55.6289ZM310.465 55.6289H310.715V55.1406H310.465H310.215V55.6289H310.465ZM310.465 55.1406V54.8906H309.977V55.1406V55.3906H310.465V55.1406ZM309.977 55.1406H310.227V54.6523H309.977H309.727V55.1406H309.977ZM309.977 54.6523V54.4023H308.023V54.6523V54.9023H309.977V54.6523ZM308.023 54.6523H307.773V55.1406H308.023H308.273V54.6523H308.023ZM308.023 55.1406V54.8906H307.535V55.1406V55.3906H308.023V55.1406ZM307.535 55.1406H307.285V56.6055H307.535H307.785V55.1406H307.535ZM307.535 56.6055V56.8555H310.465V56.6055V56.3555H307.535V56.6055ZM310.465 56.6055H310.215V57.0938H310.465H310.715V56.6055H310.465ZM310.465 57.0938V57.3438H310.953V57.0938V56.8438H310.465V57.0938ZM310.953 57.0938H310.703V57.582H310.953H311.203V57.0938H310.953ZM310.953 57.582V57.832H311.441V57.582V57.332H310.953V57.582ZM311.441 57.582H311.191V59.5352H311.441H311.691V57.582H311.441ZM311.441 59.5352V59.2852H310.953V59.5352V59.7852H311.441V59.5352ZM310.953 59.5352H310.703V60.0234H310.953H311.203V59.5352H310.953ZM310.953 60.0234V59.7734H310.465V60.0234V60.2734H310.953V60.0234ZM308.023 59.5352V59.7852H309.977V59.5352V59.2852H308.023V59.5352ZM309.977 59.5352H310.227V59.0469H309.977H309.727V59.5352H309.977ZM309.977 59.0469V59.2969H310.465V59.0469V58.7969H309.977V59.0469ZM310.465 59.0469H310.715V58.0703H310.465H310.215V59.0469H310.465ZM310.465 58.0703V57.8203H309.977V58.0703V58.3203H310.465V58.0703ZM309.977 58.0703H310.227V57.582H309.977H309.727V58.0703H309.977ZM309.977 57.582V57.332H307.535V57.582V57.832H309.977V57.582ZM307.535 57.582H307.285V59.0469H307.535H307.785V57.582H307.535ZM307.535 59.0469V59.2969H308.023V59.0469V58.7969H307.535V59.0469ZM308.023 59.0469H307.773V59.5352H308.023H308.273V59.0469H308.023Z" fill="#00FF00"/>
<path d="M319.5 42V32" stroke="#00FF00"/>
<path d="M329.5 42V32" stroke="#00FF00"/>
<path d="M339.5 42V32" stroke="#00FF00"/>
<path d="M349.5 42V32" stroke="#00FF00"/>
<path d="M359.5 42V32" stroke="#00FF00"/>
<path d="M369.5 42V22" stroke="#00FF00"/>
<path d="M366.559 59.5352H367.535V60.5117H364.605V59.5352H365.582V55.6289H364.605V54.6523H365.094V54.1641H365.582V53.6758H366.559V59.5352ZM370.465 59.5352H374.371V60.5117H369.488V57.582H369.977V57.0938H370.465V56.6055H372.906V56.1172H373.395V55.1406H372.906V54.6523H370.953V55.1406H370.465V55.6289H369.488V54.6523H369.977V54.1641H370.465V53.6758H373.395V54.1641H373.883V54.6523H374.371V56.6055H373.883V57.0938H373.395V57.582H370.953V58.0703H370.465V59.5352Z" fill="#00FF00"/>
<path d="M366.559 59.5352H366.309V59.7852H366.559V59.5352ZM367.535 59.5352H367.785V59.2852H367.535V59.5352ZM367.535 60.5117V60.7617H367.785V60.5117H367.535ZM364.605 60.5117H364.355V60.7617H364.605V60.5117ZM364.605 59.5352V59.2852H364.355V59.5352H364.605ZM365.582 59.5352V59.7852H365.832V59.5352H365.582ZM365.582 55.6289H365.832V55.3789H365.582V55.6289ZM364.605 55.6289H364.355V55.8789H364.605V55.6289ZM364.605 54.6523V54.4023H364.355V54.6523H364.605ZM365.094 54.6523V54.9023H365.344V54.6523H365.094ZM365.094 54.1641V53.9141H364.844V54.1641H365.094ZM365.582 54.1641V54.4141H365.832V54.1641H365.582ZM365.582 53.6758V53.4258H365.332V53.6758H365.582ZM366.559 53.6758H366.809V53.4258H366.559V53.6758ZM366.559 59.5352V59.7852H367.535V59.5352V59.2852H366.559V59.5352ZM367.535 59.5352H367.285V60.5117H367.535H367.785V59.5352H367.535ZM367.535 60.5117V60.2617H364.605V60.5117V60.7617H367.535V60.5117ZM364.605 60.5117H364.855V59.5352H364.605H364.355V60.5117H364.605ZM364.605 59.5352V59.7852H365.582V59.5352V59.2852H364.605V59.5352ZM365.582 59.5352H365.832V55.6289H365.582H365.332V59.5352H365.582ZM365.582 55.6289V55.3789H364.605V55.6289V55.8789H365.582V55.6289ZM364.605 55.6289H364.855V54.6523H364.605H364.355V55.6289H364.605ZM364.605 54.6523V54.9023H365.094V54.6523V54.4023H364.605V54.6523ZM365.094 54.6523H365.344V54.1641H365.094H364.844V54.6523H365.094ZM365.094 54.1641V54.4141H365.582V54.1641V53.9141H365.094V54.1641ZM365.582 54.1641H365.832V53.6758H365.582H365.332V54.1641H365.582ZM365.582 53.6758V53.9258H366.559V53.6758V53.4258H365.582V53.6758ZM366.559 53.6758H366.309V59.5352H366.559H366.809V53.6758H366.559ZM370.465 59.5352H370.215V59.7852H370.465V59.5352ZM374.371 59.5352H374.621V59.2852H374.371V59.5352ZM374.371 60.5117V60.7617H374.621V60.5117H374.371ZM369.488 60.5117H369.238V60.7617H369.488V60.5117ZM369.488 57.582V57.332H369.238V57.582H369.488ZM369.977 57.582V57.832H370.227V57.582H369.977ZM369.977 57.0938V56.8438H369.727V57.0938H369.977ZM370.465 57.0938V57.3438H370.715V57.0938H370.465ZM370.465 56.6055V56.3555H370.215V56.6055H370.465ZM372.906 56.6055V56.8555H373.156V56.6055H372.906ZM372.906 56.1172V55.8672H372.656V56.1172H372.906ZM373.395 56.1172V56.3672H373.645V56.1172H373.395ZM373.395 55.1406H373.645V54.8906H373.395V55.1406ZM372.906 55.1406H372.656V55.3906H372.906V55.1406ZM372.906 54.6523H373.156V54.4023H372.906V54.6523ZM370.953 54.6523V54.4023H370.703V54.6523H370.953ZM370.953 55.1406V55.3906H371.203V55.1406H370.953ZM370.465 55.1406V54.8906H370.215V55.1406H370.465ZM370.465 55.6289V55.8789H370.715V55.6289H370.465ZM369.488 55.6289H369.238V55.8789H369.488V55.6289ZM369.488 54.6523V54.4023H369.238V54.6523H369.488ZM369.977 54.6523V54.9023H370.227V54.6523H369.977ZM369.977 54.1641V53.9141H369.727V54.1641H369.977ZM370.465 54.1641V54.4141H370.715V54.1641H370.465ZM370.465 53.6758V53.4258H370.215V53.6758H370.465ZM373.395 53.6758H373.645V53.4258H373.395V53.6758ZM373.395 54.1641H373.145V54.4141H373.395V54.1641ZM373.883 54.1641H374.133V53.9141H373.883V54.1641ZM373.883 54.6523H373.633V54.9023H373.883V54.6523ZM374.371 54.6523H374.621V54.4023H374.371V54.6523ZM374.371 56.6055V56.8555H374.621V56.6055H374.371ZM373.883 56.6055V56.3555H373.633V56.6055H373.883ZM373.883 57.0938V57.3438H374.133V57.0938H373.883ZM373.395 57.0938V56.8438H373.145V57.0938H373.395ZM373.395 57.582V57.832H373.645V57.582H373.395ZM370.953 57.582V57.332H370.703V57.582H370.953ZM370.953 58.0703V58.3203H371.203V58.0703H370.953ZM370.465 58.0703V57.8203H370.215V58.0703H370.465ZM370.465 59.5352V59.7852H374.371V59.5352V59.2852H370.465V59.5352ZM374.371 59.5352H374.121V60.5117H374.371H374.621V59.5352H374.371ZM374.371 60.5117V60.2617H369.488V60.5117V60.7617H374.371V60.5117ZM369.488 60.5117H369.738V57.582H369.488H369.238V60.5117H369.488ZM369.488 57.582V57.832H369.977V57.582V57.332H369.488V57.582ZM369.977 57.582H370.227V57.0938H369.977H369.727V57.582H369.977ZM369.977 57.0938V57.3438H370.465V57.0938V56.8438H369.977V57.0938ZM370.465 57.0938H370.715V56.6055H370.465H370.215V57.0938H370.465ZM370.465 56.6055V56.8555H372.906V56.6055V56.3555H370.465V56.6055ZM372.906 56.6055H373.156V56.1172H372.906H372.656V56.6055H372.906ZM372.906 56.1172V56.3672H373.395V56.1172V55.8672H372.906V56.1172ZM373.395 56.1172H373.645V55.1406H373.395H373.145V56.1172H373.395ZM373.395 55.1406V54.8906H372.906V55.1406V55.3906H373.395V55.1406ZM372.906 55.1406H373.156V54.6523H372.906H372.656V55.1406H372.906ZM372.906 54.6523V54.4023H370.953V54.6523V54.9023H372.906V54.6523ZM370.953 54.6523H370.703V55.1406H370.953H371.203V54.6523H370.953ZM370.953 55.1406V54.8906H370.465V55.1406V55.3906H370.953V55.1406ZM370.465 55.1406H370.215V55.6289H370.465H370.715V55.1406H370.465ZM370.465 55.6289V55.3789H369.488V55.6289V55.8789H370.465V55.6289ZM369.488 55.6289H369.738V54.6523H369.488H369.238V55.6289H369.488ZM369.488 54.6523V54.9023H369.977V54.6523V54.4023H369.488V54.6523ZM369.977 54.6523H370.227V54.1641H369.977H369.727V54.6523H369.977ZM369.977 54.1641V54.4141H370.465V54.1641V53.9141H369.977V54.1641ZM370.465 54.1641H370.715V53.6758H370.465H370.215V54.1641H370.465ZM370.465 53.6758V53.9258H373.395V53.6758V53.4258H370.465V53.6758ZM373.395 53.6758H373.145V54.1641H373.395H373.645V53.6758H373.395ZM373.395 54.1641V54.4141H373.883V54.1641V53.9141H373.395V54.1641ZM373.883 54.1641H373.633V54.6523H373.883H374.133V54.1641H373.883ZM373.883 54.6523V54.9023H374.371V54.6523V54.4023H373.883V54.6523ZM374.371 54.6523H374.121V56.6055H374.371H374.621V54.6523H374.371ZM374.371 56.6055V56.3555H373.883V56.6055V56.8555H374.371V56.6055ZM373.883 56.6055H373.633V57.0938H373.883H374.133V56.6055H373.883ZM373.883 57.0938V56.8438H373.395V57.0938V57.3438H373.883V57.0938ZM373.395 57.0938H373.145V57.582H373.395H373.645V57.0938H373.395ZM373.395 57.582V57.332H370.953V57.582V57.832H373.395V57.582ZM370.953 57.582H370.703V58.0703H370.953H371.203V57.582H370.953ZM370.953 58.0703V57.8203H370.465V58.0703V58.3203H370.953V58.0703ZM370.465 58.0703H370.215V59.5352H370.465H370.715V58.0703H370.465Z" fill="#00FF00"/>
<path d="M426.559 59.5352H427.535V60.5117H424.605V59.5352H425.582V55.6289H424.605V54.6523H425.094V54.1641H425.582V53.6758H426.559V59.5352ZM430.953 59.5352H432.906V59.0469H433.395V58.0703H432.906V57.582H430.953V58.0703H430.465V59.0469H430.953V59.5352ZM433.395 60.0234V60.5117H430.465V60.0234H429.977V59.5352H429.488V57.582H429.977V56.6055H429.488V54.6523H429.977V54.1641H430.465V53.6758H433.395V54.1641H433.883V54.6523H434.371V56.6055H433.883V57.582H434.371V59.5352H433.883V60.0234H433.395ZM432.906 54.6523H430.953V55.1406H430.465V56.1172H430.953V56.6055H432.906V56.1172H433.395V55.1406H432.906V54.6523Z" fill="#00FF00"/>
<path d="M426.559 59.5352H426.309V59.7852H426.559V59.5352ZM427.535 59.5352H427.785V59.2852H427.535V59.5352ZM427.535 60.5117V60.7617H427.785V60.5117H427.535ZM424.605 60.5117H424.355V60.7617H424.605V60.5117ZM424.605 59.5352V59.2852H424.355V59.5352H424.605ZM425.582 59.5352V59.7852H425.832V59.5352H425.582ZM425.582 55.6289H425.832V55.3789H425.582V55.6289ZM424.605 55.6289H424.355V55.8789H424.605V55.6289ZM424.605 54.6523V54.4023H424.355V54.6523H424.605ZM425.094 54.6523V54.9023H425.344V54.6523H425.094ZM425.094 54.1641V53.9141H424.844V54.1641H425.094ZM425.582 54.1641V54.4141H425.832V54.1641H425.582ZM425.582 53.6758V53.4258H425.332V53.6758H425.582ZM426.559 53.6758H426.809V53.4258H426.559V53.6758ZM426.559 59.5352V59.7852H427.535V59.5352V59.2852H426.559V59.5352ZM427.535 59.5352H427.285V60.5117H427.535H427.785V59.5352H427.535ZM427.535 60.5117V60.2617H424.605V60.5117V60.7617H427.535V60.5117ZM424.605 60.5117H424.855V59.5352H424.605H424.355V60.5117H424.605ZM424.605 59.5352V59.7852H425.582V59.5352V59.2852H424.605V59.5352ZM425.582 59.5352H425.832V55.6289H425.582H425.332V59.5352H425.582ZM425.582 55.6289V55.3789H424.605V55.6289V55.8789H425.582V55.6289ZM424.605 55.6289H424.855V54.6523H424.605H424.355V55.6289H424.605ZM424.605 54.6523V54.9023H425.094V54.6523V54.4023H424.605V54.6523ZM425.094 54.6523H425.344V54.1641H425.094H424.844V54.6523H425.094ZM425.094 54.1641V54.4141H425.582V54.1641V53.9141H425.094V54.1641ZM425.582 54.1641H425.832V53.6758H425.582H425.332V54.1641H425.582ZM425.582 53.6758V53.9258H426.559V53.6758V53.4258H425.582V53.6758ZM426.559 53.6758H426.309V59.5352H426.559H426.809V53.6758H426.559ZM430.953 59.5352H430.703V59.7852H430.953V59.5352ZM432.906 59.5352V59.7852H433.156V59.5352H432.906ZM432.906 59.0469V58.7969H432.656V59.0469H432.906ZM433.395 59.0469V59.2969H433.645V59.0469H433.395ZM433.395 58.0703H433.645V57.8203H433.395V58.0703ZM432.906 58.0703H432.656V58.3203H432.906V58.0703ZM432.906 57.582H433.156V57.332H432.906V57.582ZM430.953 57.582V57.332H430.703V57.582H430.953ZM430.953 58.0703V58.3203H431.203V58.0703H430.953ZM430.465 58.0703V57.8203H430.215V58.0703H430.465ZM430.465 59.0469H430.215V59.2969H430.465V59.0469ZM430.953 59.0469H431.203V58.7969H430.953V59.0469ZM433.395 60.0234V59.7734H433.145V60.0234H433.395ZM433.395 60.5117V60.7617H433.645V60.5117H433.395ZM430.465 60.5117H430.215V60.7617H430.465V60.5117ZM430.465 60.0234H430.715V59.7734H430.465V60.0234ZM429.977 60.0234H429.727V60.2734H429.977V60.0234ZM429.977 59.5352H430.227V59.2852H429.977V59.5352ZM429.488 59.5352H429.238V59.7852H429.488V59.5352ZM429.488 57.582V57.332H429.238V57.582H429.488ZM429.977 57.582V57.832H430.227V57.582H429.977ZM429.977 56.6055H430.227V56.3555H429.977V56.6055ZM429.488 56.6055H429.238V56.8555H429.488V56.6055ZM429.488 54.6523V54.4023H429.238V54.6523H429.488ZM429.977 54.6523V54.9023H430.227V54.6523H429.977ZM429.977 54.1641V53.9141H429.727V54.1641H429.977ZM430.465 54.1641V54.4141H430.715V54.1641H430.465ZM430.465 53.6758V53.4258H430.215V53.6758H430.465ZM433.395 53.6758H433.645V53.4258H433.395V53.6758ZM433.395 54.1641H433.145V54.4141H433.395V54.1641ZM433.883 54.1641H434.133V53.9141H433.883V54.1641ZM433.883 54.6523H433.633V54.9023H433.883V54.6523ZM434.371 54.6523H434.621V54.4023H434.371V54.6523ZM434.371 56.6055V56.8555H434.621V56.6055H434.371ZM433.883 56.6055V56.3555H433.633V56.6055H433.883ZM433.883 57.582H433.633V57.832H433.883V57.582ZM434.371 57.582H434.621V57.332H434.371V57.582ZM434.371 59.5352V59.7852H434.621V59.5352H434.371ZM433.883 59.5352V59.2852H433.633V59.5352H433.883ZM433.883 60.0234V60.2734H434.133V60.0234H433.883ZM432.906 54.6523H433.156V54.4023H432.906V54.6523ZM430.953 54.6523V54.4023H430.703V54.6523H430.953ZM430.953 55.1406V55.3906H431.203V55.1406H430.953ZM430.465 55.1406V54.8906H430.215V55.1406H430.465ZM430.465 56.1172H430.215V56.3672H430.465V56.1172ZM430.953 56.1172H431.203V55.8672H430.953V56.1172ZM430.953 56.6055H430.703V56.8555H430.953V56.6055ZM432.906 56.6055V56.8555H433.156V56.6055H432.906ZM432.906 56.1172V55.8672H432.656V56.1172H432.906ZM433.395 56.1172V56.3672H433.645V56.1172H433.395ZM433.395 55.1406H433.645V54.8906H433.395V55.1406ZM432.906 55.1406H432.656V55.3906H432.906V55.1406ZM430.953 59.5352V59.7852H432.906V59.5352V59.2852H430.953V59.5352ZM432.906 59.5352H433.156V59.0469H432.906H432.656V59.5352H432.906ZM432.906 59.0469V59.2969H433.395V59.0469V58.7969H432.906V59.0469ZM433.395 59.0469H433.645V58.0703H433.395H433.145V59.0469H433.395ZM433.395 58.0703V57.8203H432.906V58.0703V58.3203H433.395V58.0703ZM432.906 58.0703H433.156V57.582H432.906H432.656V58.0703H432.906ZM432.906 57.582V57.332H430.953V57.582V57.832H432.906V57.582ZM430.953 57.582H430.703V58.0703H430.953H431.203V57.582H430.953ZM430.953 58.0703V57.8203H430.465V58.0703V58.3203H430.953V58.0703ZM430.465 58.0703H430.215V59.0469H430.465H430.715V58.0703H430.465ZM430.465 59.0469V59.2969H430.953V59.0469V58.7969H430.465V59.0469ZM430.953 59.0469H430.703V59.5352H430.953H431.203V59.0469H430.953ZM433.395 60.0234H433.145V60.5117H433.395H433.645V60.0234H433.395ZM433.395 60.5117V60.2617H430.465V60.5117V60.7617H433.395V60.5117ZM430.465 60.5117H430.715V60.0234H430.465H430.215V60.5117H430.465ZM430.465 60.0234V59.7734H429.977V60.0234V60.2734H430.465V60.0234ZM429.977 60.0234H430.227V59.5352H429.977H429.727V60.0234H429.977ZM429.977 59.5352V59.2852H429.488V59.5352V59.7852H429.977V59.5352ZM429.488 59.5352H429.738V57.582H429.488H429.238V59.5352H429.488ZM429.488 57.582V57.832H429.977V57.582V57.332H429.488V57.582ZM429.977 57.582H430.227V56.6055H429.977H429.727V57.582H429.977ZM429.977 56.6055V56.3555H429.488V56.6055V56.8555H429.977V56.6055ZM429.488 56.6055H429.738V54.6523H429.488H429.238V56.6055H429.488ZM429.488 54.6523V54.9023H429.977V54.6523V54.4023H429.488V54.6523ZM429.977 54.6523H430.227V54.1641H429.977H429.727V54.6523H429.977ZM429.977 54.1641V54.4141H430.465V54.1641V53.9141H429.977V54.1641ZM430.465 54.1641H430.715V53.6758H430.465H430.215V54.1641H430.465ZM430.465 53.6758V53.9258H433.395V53.6758V53.4258H430.465V53.6758ZM433.395 53.6758H433.145V54.1641H433.395H433.645V53.6758H433.395ZM433.395 54.1641V54.4141H433.883V54.1641V53.9141H433.395V54.1641ZM433.883 54.1641H433.633V54.6523H433.883H434.133V54.1641H433.883ZM433.883 54.6523V54.9023H434.371V54.6523V54.4023H433.883V54.6523ZM434.371 54.6523H434.121V56.6055H434.371H434.621V54.6523H434.371ZM434.371 56.6055V56.3555H433.883V56.6055V56.8555H434.371V56.6055ZM433.883 56.6055H433.633V57.582H433.883H434.133V56.6055H433.883ZM433.883 57.582V57.832H434.371V57.582V57.332H433.883V57.582ZM434.371 57.582H434.121V59.5352H434.371H434.621V57.582H434.371ZM434.371 59.5352V59.2852H433.883V59.5352V59.7852H434.371V59.5352ZM433.883 59.5352H433.633V60.0234H433.883H434.133V59.5352H433.883ZM433.883 60.0234V59.7734H433.395V60.0234V60.2734H433.883V60.0234ZM432.906 54.6523V54.4023H430.953V54.6523V54.9023H432.906V54.6523ZM430.953 54.6523H430.703V55.1406H430.953H431.203V54.6523H430.953ZM430.953 55.1406V54.8906H430.465V55.1406V55.3906H430.953V55.1406ZM430.465 55.1406H430.215V56.1172H430.465H430.715V55.1406H430.465ZM430.465 56.1172V56.3672H430.953V56.1172V55.8672H430.465V56.1172ZM430.953 56.1172H430.703V56.6055H430.953H431.203V56.1172H430.953ZM430.953 56.6055V56.8555H432.906V56.6055V56.3555H430.953V56.6055ZM432.906 56.6055H433.156V56.1172H432.906H432.656V56.6055H432.906ZM432.906 56.1172V56.3672H433.395V56.1172V55.8672H432.906V56.1172ZM433.395 56.1172H433.645V55.1406H433.395H433.145V56.1172H433.395ZM433.395 55.1406V54.8906H432.906V55.1406V55.3906H433.395V55.1406ZM432.906 55.1406H433.156V54.6523H432.906H432.656V55.1406H432.906Z" fill="#00FF00"/>
<path d="M379.5 42V32" stroke="#00FF00"/>
<path d="M389.5 42V32" stroke="#00FF00"/>
<path d="M399.5 42V32" stroke="#00FF00"/>
<path d="M409.5 42V32" stroke="#00FF00"/>
<path d="M419.5 42V32" stroke="#00FF00"/>
<path d="M429.5 42V22" stroke="#00FF00"/>
<path d="M439.5 42V32" stroke="#00FF00"/>
<path d="M449.5 42V32" stroke="#00FF00"/>
<path d="M459.5 42V32" stroke="#00FF00"/>
<path d="M469.5 42V32" stroke="#00FF00"/>
<path d="M479.5 42V32" stroke="#00FF00"/>
<path d="M489.5 42V22" stroke="#00FF00"/>
<path d="M484.605 59.5352H488.512V60.5117H483.629V57.582H484.117V57.0938H484.605V56.6055H487.047V56.1172H487.535V55.1406H487.047V54.6523H485.094V55.1406H484.605V55.6289H483.629V54.6523H484.117V54.1641H484.605V53.6758H487.535V54.1641H488.023V54.6523H488.512V56.6055H488.023V57.0938H487.535V57.582H485.094V58.0703H484.605V59.5352ZM492.418 54.1641V53.6758H493.395V57.582H494.371V58.5586H493.395V60.5117H492.418V58.5586H489.488V56.6055H489.977V56.1172H490.465V55.6289H490.953V55.1406H491.441V54.6523H491.93V54.1641H492.418ZM492.418 57.582V55.6289H491.93V56.1172H491.441V56.6055H490.953V57.0938H490.465V57.582H492.418Z" fill="#00FF00"/>
<path d="M484.605 59.5352H484.355V59.7852H484.605V59.5352ZM488.512 59.5352H488.762V59.2852H488.512V59.5352ZM488.512 60.5117V60.7617H488.762V60.5117H488.512ZM483.629 60.5117H483.379V60.7617H483.629V60.5117ZM483.629 57.582V57.332H483.379V57.582H483.629ZM484.117 57.582V57.832H484.367V57.582H484.117ZM484.117 57.0938V56.8438H483.867V57.0938H484.117ZM484.605 57.0938V57.3438H484.855V57.0938H484.605ZM484.605 56.6055V56.3555H484.355V56.6055H484.605ZM487.047 56.6055V56.8555H487.297V56.6055H487.047ZM487.047 56.1172V55.8672H486.797V56.1172H487.047ZM487.535 56.1172V56.3672H487.785V56.1172H487.535ZM487.535 55.1406H487.785V54.8906H487.535V55.1406ZM487.047 55.1406H486.797V55.3906H487.047V55.1406ZM487.047 54.6523H487.297V54.4023H487.047V54.6523ZM485.094 54.6523V54.4023H484.844V54.6523H485.094ZM485.094 55.1406V55.3906H485.344V55.1406H485.094ZM484.605 55.1406V54.8906H484.355V55.1406H484.605ZM484.605 55.6289V55.8789H484.855V55.6289H484.605ZM483.629 55.6289H483.379V55.8789H483.629V55.6289ZM483.629 54.6523V54.4023H483.379V54.6523H483.629ZM484.117 54.6523V54.9023H484.367V54.6523H484.117ZM484.117 54.1641V53.9141H483.867V54.1641H484.117ZM484.605 54.1641V54.4141H484.855V54.1641H484.605ZM484.605 53.6758V53.4258H484.355V53.6758H484.605ZM487.535 53.6758H487.785V53.4258H487.535V53.6758ZM487.535 54.1641H487.285V54.4141H487.535V54.1641ZM488.023 54.1641H488.273V53.9141H488.023V54.1641ZM488.023 54.6523H487.773V54.9023H488.023V54.6523ZM488.512 54.6523H488.762V54.4023H488.512V54.6523ZM488.512 56.6055V56.8555H488.762V56.6055H488.512ZM488.023 56.6055V56.3555H487.773V56.6055H488.023ZM488.023 57.0938V57.3438H488.273V57.0938H488.023ZM487.535 57.0938V56.8438H487.285V57.0938H487.535ZM487.535 57.582V57.832H487.785V57.582H487.535ZM485.094 57.582V57.332H484.844V57.582H485.094ZM485.094 58.0703V58.3203H485.344V58.0703H485.094ZM484.605 58.0703V57.8203H484.355V58.0703H484.605ZM484.605 59.5352V59.7852H488.512V59.5352V59.2852H484.605V59.5352ZM488.512 59.5352H488.262V60.5117H488.512H488.762V59.5352H488.512ZM488.512 60.5117V60.2617H483.629V60.5117V60.7617H488.512V60.5117ZM483.629 60.5117H483.879V57.582H483.629H483.379V60.5117H483.629ZM483.629 57.582V57.832H484.117V57.582V57.332H483.629V57.582ZM484.117 57.582H484.367V57.0938H484.117H483.867V57.582H484.117ZM484.117 57.0938V57.3438H484.605V57.0938V56.8438H484.117V57.0938ZM484.605 57.0938H484.855V56.6055H484.605H484.355V57.0938H484.605ZM484.605 56.6055V56.8555H487.047V56.6055V56.3555H484.605V56.6055ZM487.047 56.6055H487.297V56.1172H487.047H486.797V56.6055H487.047ZM487.047 56.1172V56.3672H487.535V56.1172V55.8672H487.047V56.1172ZM487.535 56.1172H487.785V55.1406H487.535H487.285V56.1172H487.535ZM487.535 55.1406V54.8906H487.047V55.1406V55.3906H487.535V55.1406ZM487.047 55.1406H487.297V54.6523H487.047H486.797V55.1406H487.047ZM487.047 54.6523V54.4023H485.094V54.6523V54.9023H487.047V54.6523ZM485.094 54.6523H484.844V55.1406H485.094H485.344V54.6523H485.094ZM485.094 55.1406V54.8906H484.605V55.1406V55.3906H485.094V55.1406ZM484.605 55.1406H484.355V55.6289H484.605H484.855V55.1406H484.605ZM484.605 55.6289V55.3789H483.629V55.6289V55.8789H484.605V55.6289ZM483.629 55.6289H483.879V54.6523H483.629H483.379V55.6289H483.629ZM483.629 54.6523V54.9023H484.117V54.6523V54.4023H483.629V54.6523ZM484.117 54.6523H484.367V54.1641H484.117H483.867V54.6523H484.117ZM484.117 54.1641V54.4141H484.605V54.1641V53.9141H484.117V54.1641ZM484.605 54.1641H484.855V53.6758H484.605H484.355V54.1641H484.605ZM484.605 53.6758V53.9258H487.535V53.6758V53.4258H484.605V53.6758ZM487.535 53.6758H487.285V54.1641H487.535H487.785V53.6758H487.535ZM487.535 54.1641V54.4141H488.023V54.1641V53.9141H487.535V54.1641ZM488.023 54.1641H487.773V54.6523H488.023H488.273V54.1641H488.023ZM488.023 54.6523V54.9023H488.512V54.6523V54.4023H488.023V54.6523ZM488.512 54.6523H488.262V56.6055H488.512H488.762V54.6523H488.512ZM488.512 56.6055V56.3555H488.023V56.6055V56.8555H488.512V56.6055ZM488.023 56.6055H487.773V57.0938H488.023H488.273V56.6055H488.023ZM488.023 57.0938V56.8438H487.535V57.0938V57.3438H488.023V57.0938ZM487.535 57.0938H487.285V57.582H487.535H487.785V57.0938H487.535ZM487.535 57.582V57.332H485.094V57.582V57.832H487.535V57.582ZM485.094 57.582H484.844V58.0703H485.094H485.344V57.582H485.094ZM485.094 58.0703V57.8203H484.605V58.0703V58.3203H485.094V58.0703ZM484.605 58.0703H484.355V59.5352H484.605H484.855V58.0703H484.605ZM492.418 54.1641V54.4141H492.668V54.1641H492.418ZM492.418 53.6758V53.4258H492.168V53.6758H492.418ZM493.395 53.6758H493.645V53.4258H493.395V53.6758ZM493.395 57.582H493.145V57.832H493.395V57.582ZM494.371 57.582H494.621V57.332H494.371V57.582ZM494.371 58.5586V58.8086H494.621V58.5586H494.371ZM493.395 58.5586V58.3086H493.145V58.5586H493.395ZM493.395 60.5117V60.7617H493.645V60.5117H493.395ZM492.418 60.5117H492.168V60.7617H492.418V60.5117ZM492.418 58.5586H492.668V58.3086H492.418V58.5586ZM489.488 58.5586H489.238V58.8086H489.488V58.5586ZM489.488 56.6055V56.3555H489.238V56.6055H489.488ZM489.977 56.6055V56.8555H490.227V56.6055H489.977ZM489.977 56.1172V55.8672H489.727V56.1172H489.977ZM490.465 56.1172V56.3672H490.715V56.1172H490.465ZM490.465 55.6289V55.3789H490.215V55.6289H490.465ZM490.953 55.6289V55.8789H491.203V55.6289H490.953ZM490.953 55.1406V54.8906H490.703V55.1406H490.953ZM491.441 55.1406V55.3906H491.691V55.1406H491.441ZM491.441 54.6523V54.4023H491.191V54.6523H491.441ZM491.93 54.6523V54.9023H492.18V54.6523H491.93ZM491.93 54.1641V53.9141H491.68V54.1641H491.93ZM492.418 57.582V57.832H492.668V57.582H492.418ZM492.418 55.6289H492.668V55.3789H492.418V55.6289ZM491.93 55.6289V55.3789H491.68V55.6289H491.93ZM491.93 56.1172V56.3672H492.18V56.1172H491.93ZM491.441 56.1172V55.8672H491.191V56.1172H491.441ZM491.441 56.6055V56.8555H491.691V56.6055H491.441ZM490.953 56.6055V56.3555H490.703V56.6055H490.953ZM490.953 57.0938V57.3438H491.203V57.0938H490.953ZM490.465 57.0938V56.8438H490.215V57.0938H490.465ZM490.465 57.582H490.215V57.832H490.465V57.582ZM492.418 54.1641H492.668V53.6758H492.418H492.168V54.1641H492.418ZM492.418 53.6758V53.9258H493.395V53.6758V53.4258H492.418V53.6758ZM493.395 53.6758H493.145V57.582H493.395H493.645V53.6758H493.395ZM493.395 57.582V57.832H494.371V57.582V57.332H493.395V57.582ZM494.371 57.582H494.121V58.5586H494.371H494.621V57.582H494.371ZM494.371 58.5586V58.3086H493.395V58.5586V58.8086H494.371V58.5586ZM493.395 58.5586H493.145V60.5117H493.395H493.645V58.5586H493.395ZM493.395 60.5117V60.2617H492.418V60.5117V60.7617H493.395V60.5117ZM492.418 60.5117H492.668V58.5586H492.418H492.168V60.5117H492.418ZM492.418 58.5586V58.3086H489.488V58.5586V58.8086H492.418V58.5586ZM489.488 58.5586H489.738V56.6055H489.488H489.238V58.5586H489.488ZM489.488 56.6055V56.8555H489.977V56.6055V56.3555H489.488V56.6055ZM489.977 56.6055H490.227V56.1172H489.977H489.727V56.6055H489.977ZM489.977 56.1172V56.3672H490.465V56.1172V55.8672H489.977V56.1172ZM490.465 56.1172H490.715V55.6289H490.465H490.215V56.1172H490.465ZM490.465 55.6289V55.8789H490.953V55.6289V55.3789H490.465V55.6289ZM490.953 55.6289H491.203V55.1406H490.953H490.703V55.6289H490.953ZM490.953 55.1406V55.3906H491.441V55.1406V54.8906H490.953V55.1406ZM491.441 55.1406H491.691V54.6523H491.441H491.191V55.1406H491.441ZM491.441 54.6523V54.9023H491.93V54.6523V54.4023H491.441V54.6523ZM491.93 54.6523H492.18V54.1641H491.93H491.68V54.6523H491.93ZM491.93 54.1641V54.4141H492.418V54.1641V53.9141H491.93V54.1641ZM492.418 57.582H492.668V55.6289H492.418H492.168V57.582H492.418ZM492.418 55.6289V55.3789H491.93V55.6289V55.8789H492.418V55.6289ZM491.93 55.6289H491.68V56.1172H491.93H492.18V55.6289H491.93ZM491.93 56.1172V55.8672H491.441V56.1172V56.3672H491.93V56.1172ZM491.441 56.1172H491.191V56.6055H491.441H491.691V56.1172H491.441ZM491.441 56.6055V56.3555H490.953V56.6055V56.8555H491.441V56.6055ZM490.953 56.6055H490.703V57.0938H490.953H491.203V56.6055H490.953ZM490.953 57.0938V56.8438H490.465V57.0938V57.3438H490.953V57.0938ZM490.465 57.0938H490.215V57.582H490.465H490.715V57.0938H490.465ZM490.465 57.582V57.832H492.418V57.582V57.332H490.465V57.582Z" fill="#00FF00"/>
<path d="M484.105 2.65234V7.53516H486.547V7.04688H487.035V3.14062H486.547V2.65234H484.105ZM483.129 8.51172V1.67578H487.035V2.16406H487.523V2.65234H488.012V7.53516H487.523V8.02344H487.035V8.51172H483.129ZM491.43 7.53516H491.918V7.04688H492.406V6.55859H492.895V5.09375H492.406V4.60547H491.918V4.11719H491.43V4.60547H490.941V5.09375H490.453V6.55859H490.941V7.04688H491.43V7.53516ZM489.965 7.53516V8.51172H488.988V1.67578H489.965V4.11719H490.453V3.62891H490.941V3.14062H492.406V3.62891H492.895V4.11719H493.383V4.60547H493.871V7.04688H493.383V7.53516H492.895V8.02344H492.406V8.51172H490.941V8.02344H490.453V7.53516H489.965Z" fill="#00FF00"/>
<path d="M484.105 2.65234V2.40234H483.855V2.65234H484.105ZM484.105 7.53516H483.855V7.78516H484.105V7.53516ZM486.547 7.53516V7.78516H486.797V7.53516H486.547ZM486.547 7.04688V6.79688H486.297V7.04688H486.547ZM487.035 7.04688V7.29688H487.285V7.04688H487.035ZM487.035 3.14062H487.285V2.89062H487.035V3.14062ZM486.547 3.14062H486.297V3.39062H486.547V3.14062ZM486.547 2.65234H486.797V2.40234H486.547V2.65234ZM483.129 8.51172H482.879V8.76172H483.129V8.51172ZM483.129 1.67578V1.42578H482.879V1.67578H483.129ZM487.035 1.67578H487.285V1.42578H487.035V1.67578ZM487.035 2.16406H486.785V2.41406H487.035V2.16406ZM487.523 2.16406H487.773V1.91406H487.523V2.16406ZM487.523 2.65234H487.273V2.90234H487.523V2.65234ZM488.012 2.65234H488.262V2.40234H488.012V2.65234ZM488.012 7.53516V7.78516H488.262V7.53516H488.012ZM487.523 7.53516V7.28516H487.273V7.53516H487.523ZM487.523 8.02344V8.27344H487.773V8.02344H487.523ZM487.035 8.02344V7.77344H486.785V8.02344H487.035ZM487.035 8.51172V8.76172H487.285V8.51172H487.035ZM484.105 2.65234H483.855V7.53516H484.105H484.355V2.65234H484.105ZM484.105 7.53516V7.78516H486.547V7.53516V7.28516H484.105V7.53516ZM486.547 7.53516H486.797V7.04688H486.547H486.297V7.53516H486.547ZM486.547 7.04688V7.29688H487.035V7.04688V6.79688H486.547V7.04688ZM487.035 7.04688H487.285V3.14062H487.035H486.785V7.04688H487.035ZM487.035 3.14062V2.89062H486.547V3.14062V3.39062H487.035V3.14062ZM486.547 3.14062H486.797V2.65234H486.547H486.297V3.14062H486.547ZM486.547 2.65234V2.40234H484.105V2.65234V2.90234H486.547V2.65234ZM483.129 8.51172H483.379V1.67578H483.129H482.879V8.51172H483.129ZM483.129 1.67578V1.92578H487.035V1.67578V1.42578H483.129V1.67578ZM487.035 1.67578H486.785V2.16406H487.035H487.285V1.67578H487.035ZM487.035 2.16406V2.41406H487.523V2.16406V1.91406H487.035V2.16406ZM487.523 2.16406H487.273V2.65234H487.523H487.773V2.16406H487.523ZM487.523 2.65234V2.90234H488.012V2.65234V2.40234H487.523V2.65234ZM488.012 2.65234H487.762V7.53516H488.012H488.262V2.65234H488.012ZM488.012 7.53516V7.28516H487.523V7.53516V7.78516H488.012V7.53516ZM487.523 7.53516H487.273V8.02344H487.523H487.773V7.53516H487.523ZM487.523 8.02344V7.77344H487.035V8.02344V8.27344H487.523V8.02344ZM487.035 8.02344H486.785V8.51172H487.035H487.285V8.02344H487.035ZM487.035 8.51172V8.26172H483.129V8.51172V8.76172H487.035V8.51172ZM491.43 7.53516H491.18V7.78516H491.43V7.53516ZM491.918 7.53516V7.78516H492.168V7.53516H491.918ZM491.918 7.04688V6.79688H491.668V7.04688H491.918ZM492.406 7.04688V7.29688H492.656V7.04688H492.406ZM492.406 6.55859V6.30859H492.156V6.55859H492.406ZM492.895 6.55859V6.80859H493.145V6.55859H492.895ZM492.895 5.09375H493.145V4.84375H492.895V5.09375ZM492.406 5.09375H492.156V5.34375H492.406V5.09375ZM492.406 4.60547H492.656V4.35547H492.406V4.60547ZM491.918 4.60547H491.668V4.85547H491.918V4.60547ZM491.918 4.11719H492.168V3.86719H491.918V4.11719ZM491.43 4.11719V3.86719H491.18V4.11719H491.43ZM491.43 4.60547V4.85547H491.68V4.60547H491.43ZM490.941 4.60547V4.35547H490.691V4.60547H490.941ZM490.941 5.09375V5.34375H491.191V5.09375H490.941ZM490.453 5.09375V4.84375H490.203V5.09375H490.453ZM490.453 6.55859H490.203V6.80859H490.453V6.55859ZM490.941 6.55859H491.191V6.30859H490.941V6.55859ZM490.941 7.04688H490.691V7.29688H490.941V7.04688ZM491.43 7.04688H491.68V6.79688H491.43V7.04688ZM489.965 7.53516V7.28516H489.715V7.53516H489.965ZM489.965 8.51172V8.76172H490.215V8.51172H489.965ZM488.988 8.51172H488.738V8.76172H488.988V8.51172ZM488.988 1.67578V1.42578H488.738V1.67578H488.988ZM489.965 1.67578H490.215V1.42578H489.965V1.67578ZM489.965 4.11719H489.715V4.36719H489.965V4.11719ZM490.453 4.11719V4.36719H490.703V4.11719H490.453ZM490.453 3.62891V3.37891H490.203V3.62891H490.453ZM490.941 3.62891V3.87891H491.191V3.62891H490.941ZM490.941 3.14062V2.89062H490.691V3.14062H490.941ZM492.406 3.14062H492.656V2.89062H492.406V3.14062ZM492.406 3.62891H492.156V3.87891H492.406V3.62891ZM492.895 3.62891H493.145V3.37891H492.895V3.62891ZM492.895 4.11719H492.645V4.36719H492.895V4.11719ZM493.383 4.11719H493.633V3.86719H493.383V4.11719ZM493.383 4.60547H493.133V4.85547H493.383V4.60547ZM493.871 4.60547H494.121V4.35547H493.871V4.60547ZM493.871 7.04688V7.29688H494.121V7.04688H493.871ZM493.383 7.04688V6.79688H493.133V7.04688H493.383ZM493.383 7.53516V7.78516H493.633V7.53516H493.383ZM492.895 7.53516V7.28516H492.645V7.53516H492.895ZM492.895 8.02344V8.27344H493.145V8.02344H492.895ZM492.406 8.02344V7.77344H492.156V8.02344H492.406ZM492.406 8.51172V8.76172H492.656V8.51172H492.406ZM490.941 8.51172H490.691V8.76172H490.941V8.51172ZM490.941 8.02344H491.191V7.77344H490.941V8.02344ZM490.453 8.02344H490.203V8.27344H490.453V8.02344ZM490.453 7.53516H490.703V7.28516H490.453V7.53516ZM491.43 7.53516V7.78516H491.918V7.53516V7.28516H491.43V7.53516ZM491.918 7.53516H492.168V7.04688H491.918H491.668V7.53516H491.918ZM491.918 7.04688V7.29688H492.406V7.04688V6.79688H491.918V7.04688ZM492.406 7.04688H492.656V6.55859H492.406H492.156V7.04688H492.406ZM492.406 6.55859V6.80859H492.895V6.55859V6.30859H492.406V6.55859ZM492.895 6.55859H493.145V5.09375H492.895H492.645V6.55859H492.895ZM492.895 5.09375V4.84375H492.406V5.09375V5.34375H492.895V5.09375ZM492.406 5.09375H492.656V4.60547H492.406H492.156V5.09375H492.406ZM492.406 4.60547V4.35547H491.918V4.60547V4.85547H492.406V4.60547ZM491.918 4.60547H492.168V4.11719H491.918H491.668V4.60547H491.918ZM491.918 4.11719V3.86719H491.43V4.11719V4.36719H491.918V4.11719ZM491.43 4.11719H491.18V4.60547H491.43H491.68V4.11719H491.43ZM491.43 4.60547V4.35547H490.941V4.60547V4.85547H491.43V4.60547ZM490.941 4.60547H490.691V5.09375H490.941H491.191V4.60547H490.941ZM490.941 5.09375V4.84375H490.453V5.09375V5.34375H490.941V5.09375ZM490.453 5.09375H490.203V6.55859H490.453H490.703V5.09375H490.453ZM490.453 6.55859V6.80859H490.941V6.55859V6.30859H490.453V6.55859ZM490.941 6.55859H490.691V7.04688H490.941H491.191V6.55859H490.941ZM490.941 7.04688V7.29688H491.43V7.04688V6.79688H490.941V7.04688ZM491.43 7.04688H491.18V7.53516H491.43H491.68V7.04688H491.43ZM489.965 7.53516H489.715V8.51172H489.965H490.215V7.53516H489.965ZM489.965 8.51172V8.26172H488.988V8.51172V8.76172H489.965V8.51172ZM488.988 8.51172H489.238V1.67578H488.988H488.738V8.51172H488.988ZM488.988 1.67578V1.92578H489.965V1.67578V1.42578H488.988V1.67578ZM489.965 1.67578H489.715V4.11719H489.965H490.215V1.67578H489.965ZM489.965 4.11719V4.36719H490.453V4.11719V3.86719H489.965V4.11719ZM490.453 4.11719H490.703V3.62891H490.453H490.203V4.11719H490.453ZM490.453 3.62891V3.87891H490.941V3.62891V3.37891H490.453V3.62891ZM490.941 3.62891H491.191V3.14062H490.941H490.691V3.62891H490.941ZM490.941 3.14062V3.39062H492.406V3.14062V2.89062H490.941V3.14062ZM492.406 3.14062H492.156V3.62891H492.406H492.656V3.14062H492.406ZM492.406 3.62891V3.87891H492.895V3.62891V3.37891H492.406V3.62891ZM492.895 3.62891H492.645V4.11719H492.895H493.145V3.62891H492.895ZM492.895 4.11719V4.36719H493.383V4.11719V3.86719H492.895V4.11719ZM493.383 4.11719H493.133V4.60547H493.383H493.633V4.11719H493.383ZM493.383 4.60547V4.85547H493.871V4.60547V4.35547H493.383V4.60547ZM493.871 4.60547H493.621V7.04688H493.871H494.121V4.60547H493.871ZM493.871 7.04688V6.79688H493.383V7.04688V7.29688H493.871V7.04688ZM493.383 7.04688H493.133V7.53516H493.383H493.633V7.04688H493.383ZM493.383 7.53516V7.28516H492.895V7.53516V7.78516H493.383V7.53516ZM492.895 7.53516H492.645V8.02344H492.895H493.145V7.53516H492.895ZM492.895 8.02344V7.77344H492.406V8.02344V8.27344H492.895V8.02344ZM492.406 8.02344H492.156V8.51172H492.406H492.656V8.02344H492.406ZM492.406 8.51172V8.26172H490.941V8.51172V8.76172H492.406V8.51172ZM490.941 8.51172H491.191V8.02344H490.941H490.691V8.51172H490.941ZM490.941 8.02344V7.77344H490.453V8.02344V8.27344H490.941V8.02344ZM490.453 8.02344H490.703V7.53516H490.453H490.203V8.02344H490.453ZM490.453 7.53516V7.28516H489.965V7.53516V7.78516H490.453V7.53516Z" fill="#00FF00"/>
</svg>
