<svg width="40" height="455" viewBox="0 0 40 455" fill="none" xmlns="http://www.w3.org/2000/svg">
<g clip-path="url(#clip0_44_5058)">
<path d="M8.41563 19.4844H10.7594V21.8281H3.72813V19.4844H6.07188V10.1094H3.72813V7.76562H4.9V6.59375H6.07188V5.42188H8.41563V19.4844ZM17.7625 14.7969V13.625H18.9344V12.4531H20.1063V11.2812H21.2781V10.1094H23.6219V8.9375H22.45V7.76562H17.7625V8.9375H16.5906V14.7969H17.7625ZM16.5906 17.1406V18.3125H17.7625V19.4844H22.45V18.3125H23.6219V12.4531H22.45V13.625H21.2781V14.7969H20.1063V15.9688H18.9344V17.1406H16.5906ZM16.5906 6.59375V5.42188H23.6219V6.59375H24.7938V7.76562H25.9656V19.4844H24.7938V20.6562H23.6219V21.8281H16.5906V20.6562H15.4188V19.4844H14.2469V7.76562H15.4188V6.59375H16.5906ZM30.625 14.7969V13.625H31.7969V12.4531H32.9688V11.2812H34.1406V10.1094H36.4844V8.9375H35.3125V7.76562H30.625V8.9375H29.4531V14.7969H30.625ZM29.4531 17.1406V18.3125H30.625V19.4844H35.3125V18.3125H36.4844V12.4531H35.3125V13.625H34.1406V14.7969H32.9688V15.9688H31.7969V17.1406H29.4531ZM29.4531 6.59375V5.42188H36.4844V6.59375H37.6563V7.76562H38.8281V19.4844H37.6563V20.6562H36.4844V21.8281H29.4531V20.6562H28.2813V19.4844H27.1094V7.76562H28.2813V6.59375H29.4531Z" fill="#00FF00"/>
<path d="M4.6875 105.684H9.375V104.513H10.5469V102.169H9.375V100.997H4.6875V102.169H3.51562V104.513H4.6875V105.684ZM10.5469 106.856V108.028H3.51562V106.856H2.34375V105.684H1.17188V100.997H2.34375V98.6531H1.17188V93.9656H2.34375V92.7938H3.51562V91.6219H10.5469V92.7938H11.7188V93.9656H12.8906V98.6531H11.7188V100.997H12.8906V105.684H11.7188V106.856H10.5469ZM9.375 93.9656H4.6875V95.1375H3.51562V97.4813H4.6875V98.6531H9.375V97.4813H10.5469V95.1375H9.375V93.9656ZM17.55 100.997V99.825H18.7219V98.6531H19.8938V97.4813H21.0656V96.3094H23.4094V95.1375H22.2375V93.9656H17.55V95.1375H16.3781V100.997H17.55ZM16.3781 103.341V104.513H17.55V105.684H22.2375V104.513H23.4094V98.6531H22.2375V99.825H21.0656V100.997H19.8938V102.169H18.7219V103.341H16.3781ZM16.3781 92.7938V91.6219H23.4094V92.7938H24.5813V93.9656H25.7531V105.684H24.5813V106.856H23.4094V108.028H16.3781V106.856H15.2063V105.684H14.0344V93.9656H15.2063V92.7938H16.3781Z" fill="#00FF00"/>
<path d="M10.5469 193.056V194.228H3.51562V193.056H2.34375V191.884H1.17188V180.166H2.34375V178.994H3.51562V177.822H10.5469V178.994H11.7188V180.166H12.8906V182.509H10.5469V181.337H9.375V180.166H4.6875V181.337H3.51562V184.853H10.5469V186.025H11.7188V187.197H12.8906V191.884H11.7188V193.056H10.5469ZM4.6875 191.884H9.375V190.712H10.5469V188.369H9.375V187.197H3.51562V190.712H4.6875V191.884ZM17.55 187.197V186.025H18.7219V184.853H19.8938V183.681H21.0656V182.509H23.4094V181.337H22.2375V180.166H17.55V181.337H16.3781V187.197H17.55ZM16.3781 189.541V190.712H17.55V191.884H22.2375V190.712H23.4094V184.853H22.2375V186.025H21.0656V187.197H19.8938V188.369H18.7219V189.541H16.3781ZM16.3781 178.994V177.822H23.4094V178.994H24.5813V180.166H25.7531V191.884H24.5813V193.056H23.4094V194.228H16.3781V193.056H15.2063V191.884H14.0344V180.166H15.2063V178.994H16.3781Z" fill="#00FF00"/>
<path d="M8.20312 265.194V264.022H10.5469V273.397H12.8906V275.741H10.5469V280.428H8.20312V275.741H1.17188V271.053H2.34375V269.881H3.51562V268.709H4.6875V267.537H5.85938V266.366H7.03125V265.194H8.20312ZM8.20312 273.397V268.709H7.03125V269.881H5.85938V271.053H4.6875V272.225H3.51562V273.397H8.20312ZM17.55 273.397V272.225H18.7219V271.053H19.8938V269.881H21.0656V268.709H23.4094V267.537H22.2375V266.366H17.55V267.537H16.3781V273.397H17.55ZM16.3781 275.741V276.912H17.55V278.084H22.2375V276.912H23.4094V271.053H22.2375V272.225H21.0656V273.397H19.8938V274.569H18.7219V275.741H16.3781ZM16.3781 265.194V264.022H23.4094V265.194H24.5813V266.366H25.7531V278.084H24.5813V279.256H23.4094V280.428H16.3781V279.256H15.2063V278.084H14.0344V266.366H15.2063V265.194H16.3781Z" fill="#00FF00"/>
<path d="M3.51562 364.284H12.8906V366.628H1.17188V359.597H2.34375V358.425H3.51562V357.253H9.375V356.081H10.5469V353.737H9.375V352.566H4.6875V353.737H3.51562V354.909H1.17188V352.566H2.34375V351.394H3.51562V350.222H10.5469V351.394H11.7188V352.566H12.8906V357.253H11.7188V358.425H10.5469V359.597H4.6875V360.769H3.51562V364.284ZM17.55 359.597V358.425H18.7219V357.253H19.8938V356.081H21.0656V354.909H23.4094V353.737H22.2375V352.566H17.55V353.737H16.3781V359.597H17.55ZM16.3781 361.941V363.112H17.55V364.284H22.2375V363.112H23.4094V357.253H22.2375V358.425H21.0656V359.597H19.8938V360.769H18.7219V361.941H16.3781ZM16.3781 351.394V350.222H23.4094V351.394H24.5813V352.566H25.7531V364.284H24.5813V365.456H23.4094V366.628H16.3781V365.456H15.2063V364.284H14.0344V352.566H15.2063V351.394H16.3781Z" fill="#00FF00"/>
<path d="M4.6875 445.797V444.625H5.85938V443.453H7.03125V442.281H8.20312V441.109H10.5469V439.938H9.375V438.766H4.6875V439.938H3.51562V445.797H4.6875ZM3.51562 448.141V449.312H4.6875V450.484H9.375V449.312H10.5469V443.453H9.375V444.625H8.20312V445.797H7.03125V446.969H5.85938V448.141H3.51562ZM3.51562 437.594V436.422H10.5469V437.594H11.7188V438.766H12.8906V450.484H11.7188V451.656H10.5469V452.828H3.51562V451.656H2.34375V450.484H1.17188V438.766H2.34375V437.594H3.51562Z" fill="#00FF00"/>
</g>
<defs>
<clipPath id="clip0_44_5058">
<rect width="40" height="455" fill="white"/>
</clipPath>
</defs>
</svg>
