<svg width="71" height="489" viewBox="0 0 71 489" fill="none" xmlns="http://www.w3.org/2000/svg">
<g clip-path="url(#clip0_44_5145)">
<g filter="url(#filter0_dd_44_5145)">
<mask id="path-1-inside-1_44_5145" fill="white">
<path d="M0 45H26V478H0V45Z"/>
</mask>
<path d="M0 478H2V45H0H-2V478H0Z" fill="#00FF00" mask="url(#path-1-inside-1_44_5145)"/>
<line x1="2.5" y1="46" x2="24.5" y2="46" stroke="#00FF00" stroke-width="2" stroke-linecap="square"/>
<path d="M1 66.5H14" stroke="#00FF00" stroke-width="2" stroke-linecap="square"/>
<line x1="2" y1="87" x2="24" y2="87" stroke="#00FF00" stroke-width="2" stroke-linecap="square"/>
<path d="M1 109.5H14" stroke="#00FF00" stroke-width="2" stroke-linecap="square"/>
<line x1="2" y1="130" x2="24" y2="130" stroke="#00FF00" stroke-width="2" stroke-linecap="square"/>
<path d="M1 152.5H14" stroke="#00FF00" stroke-width="2" stroke-linecap="square"/>
<line x1="2" y1="173" x2="24" y2="173" stroke="#00FF00" stroke-width="2" stroke-linecap="square"/>
<path d="M1 195.5H14" stroke="#00FF00" stroke-width="2" stroke-linecap="square"/>
<line x1="2" y1="216" x2="24" y2="216" stroke="#00FF00" stroke-width="2" stroke-linecap="square"/>
<path d="M1 238.5H14" stroke="#00FF00" stroke-width="2" stroke-linecap="square"/>
<line x1="2" y1="259" x2="24" y2="259" stroke="#00FF00" stroke-width="2" stroke-linecap="square"/>
<path d="M1 281.5H14" stroke="#00FF00" stroke-width="2" stroke-linecap="square"/>
<line x1="2" y1="302" x2="24" y2="302" stroke="#00FF00" stroke-width="2" stroke-linecap="square"/>
<path d="M1 324.5H14" stroke="#00FF00" stroke-width="2" stroke-linecap="square"/>
<line x1="2" y1="345" x2="24" y2="345" stroke="#00FF00" stroke-width="2" stroke-linecap="square"/>
<path d="M1 367.5H14" stroke="#00FF00" stroke-width="2" stroke-linecap="square"/>
<line x1="2" y1="388" x2="24" y2="388" stroke="#00FF00" stroke-width="2" stroke-linecap="square"/>
<path d="M1 410.5H14" stroke="#00FF00" stroke-width="2" stroke-linecap="square"/>
<line x1="2" y1="431" x2="24" y2="431" stroke="#00FF00" stroke-width="2" stroke-linecap="square"/>
<path d="M1 453.5H14" stroke="#00FF00" stroke-width="2" stroke-linecap="square"/>
<line x1="2.5" y1="477" x2="24.5" y2="477" stroke="#00FF00" stroke-width="2" stroke-linecap="square"/>
</g>
<g clip-path="url(#clip1_44_5145)">
<path d="M39.4156 53.4844H41.7594V55.8281H34.7281V53.4844H37.0719V44.1094H34.7281V41.7656H35.9V40.5938H37.0719V39.4219H39.4156V53.4844ZM48.7625 48.7969V47.625H49.9344V46.4531H51.1063V45.2812H52.2781V44.1094H54.6219V42.9375H53.45V41.7656H48.7625V42.9375H47.5906V48.7969H48.7625ZM47.5906 51.1406V52.3125H48.7625V53.4844H53.45V52.3125H54.6219V46.4531H53.45V47.625H52.2781V48.7969H51.1063V49.9688H49.9344V51.1406H47.5906ZM47.5906 40.5938V39.4219H54.6219V40.5938H55.7938V41.7656H56.9656V53.4844H55.7938V54.6562H54.6219V55.8281H47.5906V54.6562H46.4188V53.4844H45.2469V41.7656H46.4188V40.5938H47.5906ZM61.625 48.7969V47.625H62.7969V46.4531H63.9688V45.2812H65.1406V44.1094H67.4844V42.9375H66.3125V41.7656H61.625V42.9375H60.4531V48.7969H61.625ZM60.4531 51.1406V52.3125H61.625V53.4844H66.3125V52.3125H67.4844V46.4531H66.3125V47.625H65.1406V48.7969H63.9688V49.9688H62.7969V51.1406H60.4531ZM60.4531 40.5938V39.4219H67.4844V40.5938H68.6563V41.7656H69.8281V53.4844H68.6563V54.6562H67.4844V55.8281H60.4531V54.6562H59.2813V53.4844H58.1094V41.7656H59.2813V40.5938H60.4531Z" fill="#050905"/>
<path d="M35.6875 139.684H40.375V138.513H41.5469V136.169H40.375V134.997H35.6875V136.169H34.5156V138.513H35.6875V139.684ZM41.5469 140.856V142.028H34.5156V140.856H33.3438V139.684H32.1719V134.997H33.3438V132.653H32.1719V127.966H33.3438V126.794H34.5156V125.622H41.5469V126.794H42.7188V127.966H43.8906V132.653H42.7188V134.997H43.8906V139.684H42.7188V140.856H41.5469ZM40.375 127.966H35.6875V129.138H34.5156V131.481H35.6875V132.653H40.375V131.481H41.5469V129.138H40.375V127.966ZM48.55 134.997V133.825H49.7219V132.653H50.8938V131.481H52.0656V130.309H54.4094V129.138H53.2375V127.966H48.55V129.138H47.3781V134.997H48.55ZM47.3781 137.341V138.513H48.55V139.684H53.2375V138.513H54.4094V132.653H53.2375V133.825H52.0656V134.997H50.8938V136.169H49.7219V137.341H47.3781ZM47.3781 126.794V125.622H54.4094V126.794H55.5813V127.966H56.7531V139.684H55.5813V140.856H54.4094V142.028H47.3781V140.856H46.2063V139.684H45.0344V127.966H46.2063V126.794H47.3781Z" fill="#050905"/>
<path d="M41.5469 227.056V228.228H34.5156V227.056H33.3438V225.884H32.1719V214.166H33.3438V212.994H34.5156V211.822H41.5469V212.994H42.7188V214.166H43.8906V216.509H41.5469V215.337H40.375V214.166H35.6875V215.337H34.5156V218.853H41.5469V220.025H42.7188V221.197H43.8906V225.884H42.7188V227.056H41.5469ZM35.6875 225.884H40.375V224.712H41.5469V222.369H40.375V221.197H34.5156V224.712H35.6875V225.884ZM48.55 221.197V220.025H49.7219V218.853H50.8938V217.681H52.0656V216.509H54.4094V215.337H53.2375V214.166H48.55V215.337H47.3781V221.197H48.55ZM47.3781 223.541V224.712H48.55V225.884H53.2375V224.712H54.4094V218.853H53.2375V220.025H52.0656V221.197H50.8938V222.369H49.7219V223.541H47.3781ZM47.3781 212.994V211.822H54.4094V212.994H55.5813V214.166H56.7531V225.884H55.5813V227.056H54.4094V228.228H47.3781V227.056H46.2063V225.884H45.0344V214.166H46.2063V212.994H47.3781Z" fill="#050905"/>
<path d="M39.2031 299.194V298.022H41.5469V307.397H43.8906V309.741H41.5469V314.428H39.2031V309.741H32.1719V305.053H33.3438V303.881H34.5156V302.709H35.6875V301.537H36.8594V300.366H38.0312V299.194H39.2031ZM39.2031 307.397V302.709H38.0312V303.881H36.8594V305.053H35.6875V306.225H34.5156V307.397H39.2031ZM48.55 307.397V306.225H49.7219V305.053H50.8938V303.881H52.0656V302.709H54.4094V301.537H53.2375V300.366H48.55V301.537H47.3781V307.397H48.55ZM47.3781 309.741V310.912H48.55V312.084H53.2375V310.912H54.4094V305.053H53.2375V306.225H52.0656V307.397H50.8938V308.569H49.7219V309.741H47.3781ZM47.3781 299.194V298.022H54.4094V299.194H55.5813V300.366H56.7531V312.084H55.5813V313.256H54.4094V314.428H47.3781V313.256H46.2063V312.084H45.0344V300.366H46.2063V299.194H47.3781Z" fill="#050905"/>
<path d="M34.5156 398.284H43.8906V400.628H32.1719V393.597H33.3438V392.425H34.5156V391.253H40.375V390.081H41.5469V387.737H40.375V386.566H35.6875V387.737H34.5156V388.909H32.1719V386.566H33.3438V385.394H34.5156V384.222H41.5469V385.394H42.7188V386.566H43.8906V391.253H42.7188V392.425H41.5469V393.597H35.6875V394.769H34.5156V398.284ZM48.55 393.597V392.425H49.7219V391.253H50.8938V390.081H52.0656V388.909H54.4094V387.737H53.2375V386.566H48.55V387.737H47.3781V393.597H48.55ZM47.3781 395.941V397.112H48.55V398.284H53.2375V397.112H54.4094V391.253H53.2375V392.425H52.0656V393.597H50.8938V394.769H49.7219V395.941H47.3781ZM47.3781 385.394V384.222H54.4094V385.394H55.5813V386.566H56.7531V398.284H55.5813V399.456H54.4094V400.628H47.3781V399.456H46.2063V398.284H45.0344V386.566H46.2063V385.394H47.3781Z" fill="#050905"/>
<path d="M35.6875 479.797V478.625H36.8594V477.453H38.0312V476.281H39.2031V475.109H41.5469V473.938H40.375V472.766H35.6875V473.938H34.5156V479.797H35.6875ZM34.5156 482.141V483.312H35.6875V484.484H40.375V483.312H41.5469V477.453H40.375V478.625H39.2031V479.797H38.0312V480.969H36.8594V482.141H34.5156ZM34.5156 471.594V470.422H41.5469V471.594H42.7188V472.766H43.8906V484.484H42.7188V485.656H41.5469V486.828H34.5156V485.656H33.3438V484.484H32.1719V472.766H33.3438V471.594H34.5156Z" fill="#050905"/>
</g>
</g>
<g filter="url(#filter1_dd_44_5145)">
<path d="M20.3281 20.8281H17.9844V4.42188H20.3281V6.76562H21.5V7.9375H22.6719V9.10938H25.0156V7.9375H26.1875V6.76562H27.3594V4.42188H29.7031V20.8281H27.3594V10.2812H26.1875V11.4531H25.0156V13.7969H22.6719V11.4531H21.5V10.2812H20.3281V20.8281ZM34.3906 20.8281V18.4844H36.7344V6.76562H34.3906V4.42188H41.4219V6.76562H39.0781V18.4844H41.4219V20.8281H34.3906ZM48.4531 17.3125V20.8281H46.1094V16.1406H47.2812V14.9688H48.4531V13.7969H49.625V11.4531H48.4531V10.2812H47.2812V9.10938H46.1094V4.42188H48.4531V7.9375H49.625V9.10938H50.7969V10.2812H53.1406V9.10938H54.3125V7.9375H55.4844V4.42188H57.8281V9.10938H56.6562V10.2812H55.4844V11.4531H54.3125V13.7969H55.4844V14.9688H56.6562V16.1406H57.8281V20.8281H55.4844V17.3125H54.3125V16.1406H53.1406V14.9688H50.7969V16.1406H49.625V17.3125H48.4531Z" fill="#00FF00"/>
</g>
<defs>
<filter id="filter0_dd_44_5145" x="-1" y="45" width="28" height="433" filterUnits="userSpaceOnUse" color-interpolation-filters="sRGB">
<feFlood flood-opacity="0" result="BackgroundImageFix"/>
<feColorMatrix in="SourceAlpha" type="matrix" values="0 0 0 0 0 0 0 0 0 0 0 0 0 0 0 0 0 0 127 0" result="hardAlpha"/>
<feOffset dx="1"/>
<feComposite in2="hardAlpha" operator="out"/>
<feColorMatrix type="matrix" values="0 0 0 0 0 0 0 0 0 1 0 0 0 0 1 0 0 0 1 0"/>
<feBlend mode="normal" in2="BackgroundImageFix" result="effect1_dropShadow_44_5145"/>
<feColorMatrix in="SourceAlpha" type="matrix" values="0 0 0 0 0 0 0 0 0 0 0 0 0 0 0 0 0 0 127 0" result="hardAlpha"/>
<feOffset dx="-1"/>
<feComposite in2="hardAlpha" operator="out"/>
<feColorMatrix type="matrix" values="0 0 0 0 1 0 0 0 0 0 0 0 0 0 1 0 0 0 1 0"/>
<feBlend mode="normal" in2="effect1_dropShadow_44_5145" result="effect2_dropShadow_44_5145"/>
<feBlend mode="normal" in="SourceGraphic" in2="effect2_dropShadow_44_5145" result="shape"/>
</filter>
<filter id="filter1_dd_44_5145" x="16.9844" y="4.42188" width="41.8438" height="16.4062" filterUnits="userSpaceOnUse" color-interpolation-filters="sRGB">
<feFlood flood-opacity="0" result="BackgroundImageFix"/>
<feColorMatrix in="SourceAlpha" type="matrix" values="0 0 0 0 0 0 0 0 0 0 0 0 0 0 0 0 0 0 127 0" result="hardAlpha"/>
<feOffset dx="1"/>
<feComposite in2="hardAlpha" operator="out"/>
<feColorMatrix type="matrix" values="0 0 0 0 0 0 0 0 0 1 0 0 0 0 1 0 0 0 1 0"/>
<feBlend mode="normal" in2="BackgroundImageFix" result="effect1_dropShadow_44_5145"/>
<feColorMatrix in="SourceAlpha" type="matrix" values="0 0 0 0 0 0 0 0 0 0 0 0 0 0 0 0 0 0 127 0" result="hardAlpha"/>
<feOffset dx="-1"/>
<feComposite in2="hardAlpha" operator="out"/>
<feColorMatrix type="matrix" values="0 0 0 0 1 0 0 0 0 0 0 0 0 0 1 0 0 0 1 0"/>
<feBlend mode="normal" in2="effect1_dropShadow_44_5145" result="effect2_dropShadow_44_5145"/>
<feBlend mode="normal" in="SourceGraphic" in2="effect2_dropShadow_44_5145" result="shape"/>
</filter>
<clipPath id="clip0_44_5145">
<rect width="71" height="455" fill="white" transform="translate(0 34)"/>
</clipPath>
<clipPath id="clip1_44_5145">
<rect width="40" height="455" fill="white" transform="translate(31 34)"/>
</clipPath>
</defs>
</svg>
